<svg width="96" height="28" viewBox="0 0 96 28" fill="none" xmlns="http://www.w3.org/2000/svg">
<path d="M28.0713 17.4514C28.3513 16.3474 28.5 15.1911 28.5 14C28.5 6.26801 22.232 0 14.5 0C10.7057 0 7.26403 1.50939 4.74254 3.96047C8.29175 5.04747 12.6054 6.95723 17.044 9.51986C21.5165 12.102 25.3515 14.9058 28.0713 17.4514Z" fill="white"/>
<path d="M23.5187 24.7085C21.0826 26.7623 17.9358 28 14.5 28C6.76801 28 0.5 21.732 0.5 14C0.5 13.168 0.572575 12.353 0.711739 11.5609C3.41072 14.0329 7.13095 16.7292 11.444 19.2193C15.7885 21.7276 20.0133 23.6104 23.5187 24.7085Z" fill="white"/>
<path d="M59.3295 25.0241C58.916 25.0241 58.4827 25.0044 58.0298 24.965C57.5966 24.9453 57.1732 24.8272 56.7597 24.6105C56.3658 24.3939 56.031 24.0099 55.7553 23.4585C55.4993 22.9268 55.3418 22.1588 55.2827 21.1545C53.0378 20.8591 51.3246 19.9533 50.143 18.437C48.9812 16.9207 48.4003 14.9712 48.4003 12.5884C48.4003 10.8555 48.7154 9.33915 49.3455 8.03946C49.9757 6.73977 50.9209 5.73546 52.1812 5.02654C53.4612 4.29792 55.0464 3.93361 56.9369 3.93361C58.788 3.93361 60.3437 4.29792 61.604 5.02654C62.8643 5.73546 63.8095 6.73977 64.4397 8.03946C65.0895 9.31946 65.4144 10.8358 65.4144 12.5884C65.4144 14.7939 64.8827 16.6548 63.8193 18.1712C62.7757 19.6678 61.2298 20.6327 59.1818 21.0659C59.1818 21.4992 59.2606 21.7453 59.4181 21.8044C59.5953 21.8832 59.999 21.9225 60.6292 21.9225C60.5504 21.9225 60.6784 21.9127 61.0132 21.893C61.3677 21.893 61.732 21.893 62.1061 21.893L62.047 24.9945C61.988 24.9945 61.8009 24.9945 61.4858 24.9945C61.1904 24.9945 60.8655 24.9945 60.511 24.9945C60.1566 25.0142 59.8513 25.0241 59.5953 25.0241C59.359 25.0241 59.2704 25.0241 59.3295 25.0241ZM56.8778 17.1964C58.335 17.1964 59.4181 16.7632 60.127 15.8967C60.836 15.0302 61.1904 13.8782 61.1904 12.4407C61.1904 11.0032 60.836 9.85115 60.127 8.98469C59.4181 8.09854 58.335 7.65546 56.8778 7.65546C55.4797 7.65546 54.4163 8.07885 53.6877 8.92561C52.959 9.75269 52.5947 10.9244 52.5947 12.4407C52.5947 13.8782 52.9492 15.0302 53.6581 15.8967C54.367 16.7632 55.4403 17.1964 56.8778 17.1964ZM72.4961 21.1545C71.6099 21.1545 70.8911 20.997 70.3398 20.6819C69.8081 20.3668 69.3945 19.9632 69.0991 19.4708C68.8234 18.9588 68.6364 18.4173 68.5379 17.8462C68.4394 17.2555 68.3804 16.6942 68.3607 16.1625C68.3607 15.6112 68.3607 15.1484 68.3607 14.7742V8.63023H72.3779V14.8038C72.3779 15.2173 72.4074 15.6407 72.4665 16.0739C72.5453 16.4875 72.7225 16.8419 72.9982 17.1373C73.2936 17.413 73.7662 17.5508 74.4161 17.5508C75.0659 17.5508 75.5287 17.413 75.8044 17.1373C76.0801 16.8419 76.2475 16.4875 76.3065 16.0739C76.3656 15.6407 76.3951 15.2173 76.3951 14.8038V8.63023H80.6487V20.8592H77.0745L76.3951 18.9096H76.3361C76.3361 18.9096 76.277 19.0278 76.1588 19.2641C76.0604 19.4807 75.8733 19.7367 75.5976 20.0321C75.3219 20.3275 74.9281 20.5933 74.4161 20.8296C73.9238 21.0462 73.2838 21.1545 72.4961 21.1545ZM87.8438 21.1545C86.17 21.1545 85.0081 20.6032 84.3583 19.5004C83.7281 18.3779 83.413 16.8616 83.413 14.9515C83.413 13.6715 83.5509 12.5588 83.8266 11.6136C84.1023 10.6684 84.565 9.93977 85.2149 9.42777C85.8647 8.89608 86.741 8.63023 87.8438 8.63023C88.6512 8.63023 89.3011 8.74838 89.7934 8.98469C90.3054 9.20131 90.6992 9.45731 90.9749 9.75269C91.2506 10.0481 91.4377 10.3139 91.5361 10.5502C91.6346 10.7668 91.6838 10.8752 91.6838 10.8752H91.7429V8.63023H95.9965V20.8592H92.3928L91.7429 19.205H91.6838C91.7035 19.205 91.6543 19.3035 91.5361 19.5004C91.418 19.6973 91.2112 19.9238 90.9158 20.1798C90.6401 20.4358 90.2463 20.6622 89.7343 20.8592C89.242 21.0561 88.6118 21.1545 87.8438 21.1545ZM89.5866 17.7576C90.2561 17.7576 90.7386 17.6296 91.034 17.3736C91.3491 17.0979 91.546 16.7435 91.6248 16.3102C91.7035 15.877 91.7429 15.4339 91.7429 14.981C91.7429 14.5084 91.7035 14.0653 91.6248 13.6518C91.546 13.2185 91.3491 12.8739 91.034 12.6179C90.7386 12.3619 90.2561 12.2339 89.5866 12.2339C88.917 12.2339 88.4247 12.3718 88.1096 12.6475C87.8143 12.9035 87.6272 13.2382 87.5484 13.6518C87.4696 14.0653 87.4303 14.5084 87.4303 14.981C87.4303 15.4536 87.4696 15.9065 87.5484 16.3398C87.6272 16.7533 87.8143 17.0979 88.1096 17.3736C88.4247 17.6296 88.917 17.7576 89.5866 17.7576Z" fill="white"/>
</svg>
