<svg width="24" height="24" viewBox="0 0 24 24" fill="none" xmlns="http://www.w3.org/2000/svg">
<path d="M22.2097 19.6169L20.8123 19.9584L20.5231 20.1779L8.19507 18.5202H0.902344L3.50635 12.0749L7.73975 12.1002L8.76493 13.9606L12.1468 17.4713L11.7087 15.2853L14.7271 15.8219L20.5231 20.1779L15.9421 15.8219L15.1899 13.7411L12.5439 7.29668C12.5439 7.29668 10.5108 3.69688 10.4688 3.65654C10.5261 3.66404 15.1899 3.63965 15.1899 3.63965L16.0414 7.10154L17.9191 13.7411L18.4316 15.5377L20.25 17.642L18.7705 15.3829L19.7374 14.9767L20.2004 17.0247L20.2424 17.642L22.2097 19.6169Z" fill="#F58C25"/>
<path d="M7.73974 12.099L3.50634 12.0747L2.49738 11.0099L3.13406 10.5876L1.99338 9.97782L2.96892 9.71794L1.6297 8.88953L2.43152 8.54803L2.63006 7.31244L4.85415 3.23323L7.86383 0.63916L10.4602 3.65447L12.5439 7.28711L7.73974 12.0982V12.099Z" fill="#81491F"/>
<path d="M0.902344 18.52H8.20271L10.1958 21.1366C10.1958 21.1366 5.23502 22.6077 2.74557 23.3554C2.10889 21.6892 1.50466 20.1046 0.902344 18.52Z" fill="#E48027"/>
<path d="M20.5316 7.47486L21.1186 8.14097L20.6891 8.64572L21.2837 9.0679L20.8541 9.62893L20.9534 10.5146L20.2175 11.3758L16.0414 7.10147L22.6975 1.68066L20.5316 7.47486Z" fill="#81491F"/>
<path d="M20.524 20.1777L20.5488 21.7951L18.1759 22.9735L10.1882 21.1441C10.1882 21.1441 10.1299 21.1853 10.1882 21.1441C13.5368 20.8279 20.524 20.1777 20.524 20.1777Z" fill="#D9C6B7"/>
<path d="M22.6973 1.68066L16.0413 7.10148L15.1899 3.63959L22.6973 1.68066Z" fill="#E48027"/>
<path d="M16.0414 7.10156L20.2089 11.3759L20.0352 13.5947L17.9189 13.741L16.0414 7.10156Z" fill="#E57F24"/>
<path d="M10.1881 21.1357L18.1748 22.9652L20.5478 21.7859L22.1772 21.648L20.9363 23.2411L17.5715 23.5413L10.1881 21.1357Z" fill="#C7B7AB"/>
<path d="M10.1871 21.1366L8.20258 18.5191L12.1467 17.4712L10.1871 21.1366Z" fill="#D76F21"/>
<path d="M22.1773 21.6479C21.6313 21.6966 21.0939 21.7454 20.5479 21.7867L20.523 20.1692L20.8123 19.9498L22.2098 19.6167C22.2098 19.6167 22.6813 19.9412 23.086 20.1692C22.7643 20.6891 22.4656 21.1684 22.1773 21.6479Z" fill="#2A2626"/>
<path d="M17.918 13.7411L20.0352 13.5947L19.7459 14.9767L18.9441 14.0338L18.7704 15.3829L20.2499 17.6421L18.4316 15.5292L17.9189 13.7411H17.918Z" fill="#D66F21"/>
<path d="M7.73969 12.0991L12.5439 7.28809L15.1899 13.7409L8.76582 13.9605L7.73969 12.0991Z" fill="#E47E25"/>
<path d="M10.1881 21.1366L12.1478 17.4712L20.5239 20.1778L10.1881 21.1366Z" fill="#E47F26"/>
<path d="M8.76587 13.9607L15.1899 13.7412L14.727 15.8221L13.6445 14.1803L11.7097 15.2855L8.76587 13.9607Z" fill="#D66F21"/>
<path d="M14.727 15.8221L15.1899 13.7412L15.942 15.8221L20.5239 20.1781C20.5239 20.1781 16.0499 16.8213 14.727 15.8221Z" fill="#E47F25"/>
<path d="M14.7271 15.822L11.7089 15.2854L13.6438 14.1802L14.7271 15.822Z" fill="#32404E"/>
<path d="M11.7097 15.2852L12.1478 17.4712L8.76587 13.9614L11.7097 15.2862V15.2852Z" fill="#E57F25"/>
<path d="M18.7705 15.3828L18.9442 14.0337L19.746 14.9757L18.7705 15.3828Z" fill="#38424D"/>
<path d="M19.7461 14.9767L20.0353 13.5947L20.3407 15.0658L20.2091 17.0248L19.7461 14.9767Z" fill="#E57F24"/>
</svg>
