<svg width="1078" height="815" viewBox="0 0 1078 815" fill="none" xmlns="http://www.w3.org/2000/svg">
<path d="M877.255 439.591C822.64 517.088 760.634 578.367 704.552 614.802C676.51 633.02 649.971 645.012 626.594 649.727C603.218 654.442 583.052 651.874 567.682 641.043C552.312 630.211 543.111 612.083 539.69 588.483C536.268 564.882 538.636 535.856 546.362 503.32C561.814 438.251 598.67 359.248 653.285 281.752C707.899 204.255 769.905 142.976 825.987 106.541C854.03 88.3227 880.569 76.3307 903.946 71.6155C927.321 66.9005 947.488 69.4686 962.858 80.3003C978.227 91.132 987.428 109.26 990.849 132.86C994.271 156.461 991.903 185.487 984.177 218.023C968.726 283.092 931.869 362.095 877.255 439.591Z" stroke="black"/>
<circle cx="376.5" cy="438.184" r="376.5" fill="black"/>
<path d="M233 319.275H247.136V356.684H258.227V319.275H272.341V310.138H233V319.275ZM288.949 336.775C288.972 332.797 291.335 330.434 294.858 330.434C298.426 330.434 300.494 332.729 300.472 336.615V356.684H311.585V334.434C311.608 326.525 306.79 321.32 299.449 321.32C294.222 321.32 290.54 323.888 288.972 328.184H288.585V310.138H277.835V356.684H288.949V336.775ZM334.841 357.343C344 357.343 350.023 352.911 351.295 346.047L341.091 345.752C340.227 348.07 337.955 349.32 335.045 349.32C330.773 349.32 328.136 346.479 328.136 342.206V341.911H351.409V339.138C351.409 327.638 344.409 321.32 334.5 321.32C323.955 321.32 317.182 328.547 317.182 339.365C317.182 350.547 323.864 357.343 334.841 357.343ZM328.136 335.456C328.295 331.979 331.045 329.343 334.727 329.343C338.386 329.343 341.023 331.888 341.068 335.456H328.136ZM390.676 321.775H384.017V319.82C384.017 317.82 384.835 316.593 387.426 316.593C388.472 316.593 389.744 316.82 390.562 317.07L392.335 308.934C391.017 308.57 387.994 307.956 384.926 307.956C377.812 307.956 372.926 311.911 372.926 320.002V321.775H368.222V329.956H372.926V356.684H384.017V329.956H390.676V321.775ZM418.545 341.615C418.545 345.684 415.955 347.956 412.659 347.956C409.25 347.956 407.159 345.638 407.136 341.843V321.775H396.023V344.025C396.045 351.911 400.841 357.138 408.023 357.138C413.25 357.138 417.136 354.456 418.682 350.184H419.045V356.684H429.636V321.775H418.545V341.615ZM456.415 321.775H450.119V313.411H439.006V321.775H434.392V329.956H439.006V346.934C438.938 354.002 443.528 357.547 451.369 357.184C454.051 357.047 455.983 356.502 457.051 356.184L455.369 348.161C454.892 348.275 453.778 348.502 452.938 348.502C451.142 348.502 450.119 347.775 450.119 345.706V329.956H456.415V321.775ZM484.608 341.615C484.608 345.684 482.017 347.956 478.722 347.956C475.312 347.956 473.222 345.638 473.199 341.843V321.775H462.085V344.025C462.108 351.911 466.903 357.138 474.085 357.138C479.312 357.138 483.199 354.456 484.744 350.184H485.108V356.684H495.699V321.775H484.608V341.615ZM502.773 356.684H513.886V337.729C513.886 333.57 516.841 330.775 520.818 330.775C522.136 330.775 524.114 331.002 525.182 331.365V321.706C524.25 321.456 523.091 321.297 522.068 321.297C518.25 321.297 515.205 323.525 513.932 328.138H513.568V321.775H502.773V356.684ZM544.216 357.343C553.375 357.343 559.398 352.911 560.67 346.047L550.466 345.752C549.602 348.07 547.33 349.32 544.42 349.32C540.148 349.32 537.511 346.479 537.511 342.206V341.911H560.784V339.138C560.784 327.638 553.784 321.32 543.875 321.32C533.33 321.32 526.557 328.547 526.557 339.365C526.557 350.547 533.239 357.343 544.216 357.343ZM537.511 335.456C537.67 331.979 540.42 329.343 544.102 329.343C547.761 329.343 550.398 331.888 550.443 335.456H537.511ZM596.506 357.343C607.483 357.343 614.142 350.093 614.142 339.343C614.142 328.57 607.483 321.32 596.506 321.32C585.528 321.32 578.869 328.57 578.869 339.343C578.869 350.093 585.528 357.343 596.506 357.343ZM596.574 348.956C592.46 348.956 590.188 345.047 590.188 339.275C590.188 333.479 592.46 329.547 596.574 329.547C600.551 329.547 602.824 333.479 602.824 339.275C602.824 345.047 600.551 348.956 596.574 348.956ZM639.676 321.775H633.017V319.82C633.017 317.82 633.835 316.593 636.426 316.593C637.472 316.593 638.744 316.82 639.562 317.07L641.335 308.934C640.017 308.57 636.994 307.956 633.926 307.956C626.812 307.956 621.926 311.911 621.926 320.002V321.775H617.222V329.956H621.926V356.684H633.017V329.956H639.676V321.775ZM701.023 327.002C699.886 315.865 691.591 309.502 680.341 309.502C667.932 309.502 658.273 318.025 658.273 333.411C658.273 348.729 667.705 357.32 680.341 357.32C693.114 357.32 700.182 348.638 701.023 340.388L689.659 340.32C688.864 344.797 685.5 347.456 680.568 347.456C673.932 347.456 669.75 342.661 669.75 333.411C669.75 324.525 673.841 319.365 680.636 319.365C685.75 319.365 689.091 322.343 689.659 327.002H701.023ZM723.756 357.343C734.733 357.343 741.392 350.093 741.392 339.343C741.392 328.57 734.733 321.32 723.756 321.32C712.778 321.32 706.119 328.57 706.119 339.343C706.119 350.093 712.778 357.343 723.756 357.343ZM723.824 348.956C719.71 348.956 717.438 345.047 717.438 339.275C717.438 333.479 719.71 329.547 723.824 329.547C727.801 329.547 730.074 333.479 730.074 339.275C730.074 345.047 727.801 348.956 723.824 348.956ZM256.864 410.57H235.318V419.138H256.864V410.57ZM303.46 387.138H292.21V433.684H303.46V387.138ZM330.227 398.775H323.932V390.411H312.818V398.775H308.205V406.956H312.818V423.934C312.75 431.002 317.341 434.547 325.182 434.184C327.864 434.047 329.795 433.502 330.864 433.184L329.182 425.161C328.705 425.275 327.591 425.502 326.75 425.502C324.955 425.502 323.932 424.775 323.932 422.706V406.956H330.227V398.775ZM349.648 433.684H360.898V419.229H368.534C379.193 419.229 385.852 412.911 385.852 403.252C385.852 393.684 379.33 387.138 368.875 387.138H349.648V433.684ZM360.898 410.365V396.206H366.443C371.489 396.206 374.193 398.934 374.193 403.252C374.193 407.547 371.489 410.365 366.443 410.365H360.898ZM391.307 433.684H425.761V424.615H406.898V424.32L412.466 419.184C422.557 410.388 425.193 405.911 425.193 400.57C425.193 392.184 418.352 386.502 407.784 386.502C397.489 386.502 390.602 392.434 390.625 401.911H401.284C401.284 397.706 403.875 395.275 407.739 395.275C411.534 395.275 414.284 397.615 414.284 401.456C414.284 404.934 412.102 407.297 408.284 410.729L391.307 425.593V433.684ZM432.21 433.684H443.46V419.229H451.097C461.756 419.229 468.415 412.911 468.415 403.252C468.415 393.684 461.892 387.138 451.438 387.138H432.21V433.684ZM443.46 410.365V396.206H449.006C454.051 396.206 456.756 398.934 456.756 403.252C456.756 407.547 454.051 410.365 449.006 410.365H443.46ZM487.028 387.138H475.597L476.642 419.434H485.983L487.028 387.138ZM481.324 434.343C484.438 434.343 487.188 431.706 487.233 428.434C487.188 425.206 484.438 422.593 481.324 422.593C478.051 422.593 475.369 425.206 475.415 428.434C475.369 431.706 478.051 434.343 481.324 434.343Z" fill="white"/>
<path d="M747.085 356.684H758.199V336.025C758.199 332.57 760.222 330.365 763.131 330.365C766.017 330.365 767.926 332.388 767.926 335.615V356.684H778.608V335.843C778.608 332.502 780.449 330.365 783.517 330.365C786.335 330.365 788.335 332.252 788.335 335.729V356.684H799.449V333.184C799.449 325.797 794.903 321.32 788.312 321.32C783.153 321.32 779.085 324.025 777.79 328.184H777.426C776.494 324.002 772.744 321.32 767.903 321.32C763.131 321.32 759.494 323.934 758.04 328.184H757.653V321.775H747.085V356.684ZM806.335 356.684H817.449V336.025C817.449 332.57 819.472 330.365 822.381 330.365C825.267 330.365 827.176 332.388 827.176 335.615V356.684H837.858V335.843C837.858 332.502 839.699 330.365 842.767 330.365C845.585 330.365 847.585 332.252 847.585 335.729V356.684H858.699V333.184C858.699 325.797 854.153 321.32 847.562 321.32C842.403 321.32 838.335 324.025 837.04 328.184H836.676C835.744 324.002 831.994 321.32 827.153 321.32C822.381 321.32 818.744 323.934 817.29 328.184H816.903V321.775H806.335V356.684ZM881.903 357.343C891.062 357.343 897.085 352.911 898.358 346.047L888.153 345.752C887.29 348.07 885.017 349.32 882.108 349.32C877.835 349.32 875.199 346.479 875.199 342.206V341.911H898.472V339.138C898.472 327.638 891.472 321.32 881.562 321.32C871.017 321.32 864.244 328.547 864.244 339.365C864.244 350.547 870.926 357.343 881.903 357.343ZM875.199 335.456C875.358 331.979 878.108 329.343 881.79 329.343C885.449 329.343 888.085 331.888 888.131 335.456H875.199ZM904.148 356.684H915.261V337.729C915.261 333.57 918.216 330.775 922.193 330.775C923.511 330.775 925.489 331.002 926.557 331.365V321.706C925.625 321.456 924.466 321.297 923.443 321.297C919.625 321.297 916.58 323.525 915.307 328.138H914.943V321.775H904.148V356.684ZM947.381 357.343C957.199 357.343 963.29 351.638 963.585 343.002H953.199C952.79 346.706 950.562 348.729 947.517 348.729C943.608 348.729 941.062 345.434 941.062 339.229C941.062 333.07 943.631 329.775 947.517 329.775C950.699 329.775 952.767 331.934 953.199 335.502H963.585C963.335 326.911 957.062 321.32 947.358 321.32C936.381 321.32 929.744 328.638 929.744 339.343C929.744 350.002 936.335 357.343 947.381 357.343ZM985.591 357.343C994.75 357.343 1000.77 352.911 1002.05 346.047L991.841 345.752C990.977 348.07 988.705 349.32 985.795 349.32C981.523 349.32 978.886 346.479 978.886 342.206V341.911H1002.16V339.138C1002.16 327.638 995.159 321.32 985.25 321.32C974.705 321.32 967.932 328.547 967.932 339.365C967.932 350.547 974.614 357.343 985.591 357.343ZM978.886 335.456C979.045 331.979 981.795 329.343 985.477 329.343C989.136 329.343 991.773 331.888 991.818 335.456H978.886ZM1016.59 342.434H1026.27V341.502C1026.27 337.479 1027.93 335.547 1031.36 333.502C1035.72 330.934 1038.61 327.638 1038.61 322.206C1038.61 313.956 1031.81 309.502 1022.45 309.502C1013.9 309.502 1006.86 313.752 1006.72 323.297H1017.18C1017.24 320.138 1019.65 318.229 1022.36 318.229C1025.04 318.229 1027.18 320.025 1027.18 322.729C1027.18 325.502 1025.02 327.275 1022.18 329.093C1018.56 331.411 1016.61 333.797 1016.59 341.502V342.434ZM1021.61 357.343C1024.72 357.343 1027.47 354.706 1027.52 351.434C1027.47 348.206 1024.72 345.593 1021.61 345.593C1018.34 345.593 1015.65 348.206 1015.7 351.434C1015.65 354.706 1018.34 357.343 1021.61 357.343Z" fill="black"/>
</svg>
