<svg width="1078" height="815" viewBox="0 0 1078 815" fill="none" xmlns="http://www.w3.org/2000/svg">
<path d="M877.255 439.591C822.64 517.088 760.634 578.367 704.552 614.802C676.51 633.02 649.971 645.012 626.594 649.727C603.218 654.442 583.052 651.874 567.682 641.043C552.312 630.211 543.111 612.083 539.69 588.483C536.268 564.882 538.636 535.856 546.362 503.32C561.814 438.251 598.67 359.248 653.285 281.752C707.899 204.255 769.905 142.976 825.987 106.541C854.03 88.3227 880.569 76.3307 903.946 71.6155C927.321 66.9005 947.488 69.4686 962.858 80.3003C978.227 91.132 987.428 109.26 990.849 132.86C994.271 156.461 991.903 185.487 984.177 218.023C968.726 283.092 931.869 362.095 877.255 439.591Z" stroke="black"/>
<circle cx="376.5" cy="438.184" r="376.5" fill="black"/>
<path d="M231.75 154.655H237.051V168.684H241.21V154.655H246.503V151.229H231.75V154.655ZM252.731 161.218C252.739 159.726 253.626 158.84 254.947 158.84C256.285 158.84 257.06 159.701 257.052 161.158V168.684H261.219V160.34C261.228 157.374 259.421 155.422 256.668 155.422C254.708 155.422 253.327 156.385 252.739 157.996H252.594V151.229H248.563V168.684H252.731V161.218ZM269.94 168.931C273.375 168.931 275.634 167.269 276.111 164.695L272.284 164.584C271.96 165.453 271.108 165.922 270.017 165.922C268.415 165.922 267.426 164.857 267.426 163.255V163.144H276.153V162.104C276.153 157.792 273.528 155.422 269.812 155.422C265.858 155.422 263.318 158.132 263.318 162.189C263.318 166.382 265.824 168.931 269.94 168.931ZM267.426 160.723C267.486 159.419 268.517 158.431 269.898 158.431C271.27 158.431 272.259 159.385 272.276 160.723H267.426ZM290.879 155.593H288.381V154.86C288.381 154.11 288.688 153.65 289.66 153.65C290.052 153.65 290.529 153.735 290.836 153.828L291.501 150.777C291.006 150.641 289.873 150.411 288.722 150.411C286.055 150.411 284.222 151.894 284.222 154.928V155.593H282.458V158.661H284.222V168.684H288.381V158.661H290.879V155.593ZM301.33 163.033C301.33 164.559 300.358 165.411 299.122 165.411C297.844 165.411 297.06 164.542 297.051 163.118V155.593H292.884V163.936C292.892 166.894 294.69 168.854 297.384 168.854C299.344 168.854 300.801 167.848 301.381 166.246H301.517V168.684H305.489V155.593H301.33V163.033ZM315.531 155.593H313.17V152.456H309.002V155.593H307.272V158.661H309.002V165.027C308.977 167.678 310.698 169.007 313.638 168.871C314.644 168.82 315.369 168.615 315.769 168.496L315.138 165.488C314.96 165.53 314.542 165.615 314.227 165.615C313.553 165.615 313.17 165.343 313.17 164.567V158.661H315.531V155.593ZM326.103 163.033C326.103 164.559 325.131 165.411 323.896 165.411C322.617 165.411 321.833 164.542 321.825 163.118V155.593H317.657V163.936C317.665 166.894 319.464 168.854 322.157 168.854C324.117 168.854 325.575 167.848 326.154 166.246H326.29V168.684H330.262V155.593H326.103V163.033ZM332.915 168.684H337.082V161.576C337.082 160.016 338.19 158.968 339.682 158.968C340.176 158.968 340.918 159.053 341.318 159.189V155.567C340.969 155.473 340.534 155.414 340.151 155.414C338.719 155.414 337.577 156.249 337.099 157.979H336.963V155.593H332.915V168.684ZM348.456 168.931C351.891 168.931 354.149 167.269 354.626 164.695L350.8 164.584C350.476 165.453 349.624 165.922 348.533 165.922C346.93 165.922 345.942 164.857 345.942 163.255V163.144H354.669V162.104C354.669 157.792 352.044 155.422 348.328 155.422C344.374 155.422 341.834 158.132 341.834 162.189C341.834 166.382 344.339 168.931 348.456 168.931ZM345.942 160.723C346.001 159.419 347.033 158.431 348.413 158.431C349.786 158.431 350.774 159.385 350.791 160.723H345.942ZM368.065 168.931C372.181 168.931 374.678 166.212 374.678 162.181C374.678 158.141 372.181 155.422 368.065 155.422C363.948 155.422 361.451 158.141 361.451 162.181C361.451 166.212 363.948 168.931 368.065 168.931ZM368.09 165.786C366.548 165.786 365.695 164.32 365.695 162.155C365.695 159.982 366.548 158.507 368.09 158.507C369.582 158.507 370.434 159.982 370.434 162.155C370.434 164.32 369.582 165.786 368.09 165.786ZM384.254 155.593H381.756V154.86C381.756 154.11 382.063 153.65 383.035 153.65C383.427 153.65 383.904 153.735 384.211 153.828L384.876 150.777C384.381 150.641 383.248 150.411 382.097 150.411C379.43 150.411 377.597 151.894 377.597 154.928V155.593H375.833V158.661H377.597V168.684H381.756V158.661H384.254V155.593ZM391.415 173.593H395.582V166.561H395.668C396.196 167.772 397.372 168.871 399.349 168.871C402.247 168.871 404.582 166.604 404.582 162.147C404.582 157.527 402.111 155.422 399.375 155.422C397.304 155.422 396.17 156.632 395.668 157.834H395.54V155.593H391.415V173.593ZM395.497 162.138C395.497 159.999 396.384 158.678 397.909 158.678C399.452 158.678 400.304 160.033 400.304 162.138C400.304 164.252 399.452 165.624 397.909 165.624C396.384 165.624 395.497 164.26 395.497 162.138ZM410.457 168.905C412.281 168.905 413.542 168.198 414.258 166.86H414.36V168.684H418.281V159.786C418.281 157.016 415.817 155.422 412.485 155.422C408.965 155.422 406.971 157.195 406.638 159.581L410.482 159.718C410.661 158.882 411.352 158.371 412.451 158.371C413.474 158.371 414.121 158.865 414.121 159.743V159.786C414.121 160.587 413.252 160.757 411.019 160.953C408.369 161.175 406.153 162.155 406.153 165.053C406.153 167.644 407.951 168.905 410.457 168.905ZM411.744 166.178C410.781 166.178 410.099 165.718 410.099 164.848C410.099 164.005 410.763 163.493 411.948 163.314C412.724 163.203 413.678 163.033 414.147 162.786V164.03C414.147 165.309 413.073 166.178 411.744 166.178ZM423.377 173.593C426.377 173.593 427.869 172.076 428.593 169.936L433.528 155.601L429.138 155.593L426.692 164.934H426.556L424.144 155.593H419.781L424.434 169.161L424.272 169.553C423.871 170.533 422.968 170.55 421.741 170.15L420.82 173.175C421.451 173.431 422.38 173.593 423.377 173.593ZM435.126 168.684H439.293V160.936C439.293 159.641 440.052 158.814 441.143 158.814C442.225 158.814 442.941 159.573 442.941 160.783V168.684H446.947V160.868C446.947 159.615 447.637 158.814 448.788 158.814C449.844 158.814 450.594 159.522 450.594 160.826V168.684H454.762V159.871C454.762 157.101 453.058 155.422 450.586 155.422C448.651 155.422 447.126 156.436 446.64 157.996H446.504C446.154 156.428 444.748 155.422 442.933 155.422C441.143 155.422 439.779 156.402 439.234 157.996H439.089V155.593H435.126V168.684ZM463.464 168.931C466.898 168.931 469.157 167.269 469.634 164.695L465.808 164.584C465.484 165.453 464.631 165.922 463.54 165.922C461.938 165.922 460.95 164.857 460.95 163.255V163.144H469.677V162.104C469.677 157.792 467.052 155.422 463.336 155.422C459.381 155.422 456.842 158.132 456.842 162.189C456.842 166.382 459.347 168.931 463.464 168.931ZM460.95 160.723C461.009 159.419 462.04 158.431 463.421 158.431C464.793 158.431 465.782 159.385 465.799 160.723H460.95ZM475.973 161.218C475.982 159.726 476.851 158.84 478.172 158.84C479.493 158.84 480.277 159.709 480.268 161.158V168.684H484.436V160.34C484.445 157.391 482.646 155.422 479.893 155.422C477.959 155.422 476.493 156.402 475.913 157.996H475.768V155.593H471.805V168.684H475.973V161.218ZM494.406 155.593H492.045V152.456H487.877V155.593H486.147V158.661H487.877V165.027C487.852 167.678 489.573 169.007 492.513 168.871C493.519 168.82 494.244 168.615 494.644 168.496L494.013 165.488C493.835 165.53 493.417 165.615 493.102 165.615C492.428 165.615 492.045 165.343 492.045 164.567V158.661H494.406V155.593ZM507.961 159.59C507.739 156.999 505.617 155.422 502.072 155.422C498.526 155.422 496.268 156.965 496.285 159.59C496.268 161.601 497.555 162.897 500.171 163.382L502.455 163.817C503.538 164.03 504.032 164.371 504.049 164.951C504.032 165.607 503.299 166.042 502.234 166.042C501.049 166.042 500.248 165.53 500.069 164.576L495.952 164.678C496.251 167.269 498.475 168.931 502.217 168.931C505.719 168.931 508.268 167.184 508.285 164.49C508.268 162.581 507.006 161.448 504.398 160.945L501.876 160.468C500.768 160.246 500.41 159.854 500.418 159.351C500.41 158.686 501.185 158.277 502.148 158.277C503.248 158.277 504.015 158.865 504.134 159.692L507.961 159.59ZM232.321 197.684H236.489V184.593H232.321V197.684ZM234.409 183.067C235.594 183.067 236.548 182.172 236.548 181.073C236.548 179.973 235.594 179.087 234.409 179.087C233.233 179.087 232.27 179.973 232.27 181.073C232.27 182.172 233.233 183.067 234.409 183.067ZM246.531 184.593H244.17V181.456H240.002V184.593H238.272V187.661H240.002V194.027C239.977 196.678 241.698 198.007 244.638 197.871C245.644 197.82 246.369 197.615 246.769 197.496L246.138 194.488C245.96 194.53 245.542 194.615 245.227 194.615C244.553 194.615 244.17 194.343 244.17 193.567V187.661H246.531V184.593ZM259.924 197.931C263.606 197.931 265.89 195.792 266.001 192.553H262.106C261.952 193.942 261.117 194.701 259.975 194.701C258.509 194.701 257.555 193.465 257.555 191.138C257.555 188.828 258.518 187.593 259.975 187.593C261.168 187.593 261.944 188.402 262.106 189.74H266.001C265.907 186.519 263.555 184.422 259.915 184.422C255.799 184.422 253.31 187.167 253.31 191.181C253.31 195.178 255.782 197.931 259.924 197.931ZM268.134 197.684H272.301V190.576C272.301 189.016 273.409 187.968 274.901 187.968C275.395 187.968 276.136 188.053 276.537 188.189V184.567C276.188 184.473 275.753 184.414 275.369 184.414C273.938 184.414 272.795 185.249 272.318 186.979H272.182V184.593H268.134V197.684ZM281.182 202.593C284.182 202.593 285.673 201.076 286.398 198.936L291.332 184.601L286.943 184.593L284.497 193.934H284.361L281.949 184.593H277.585L282.239 198.161L282.077 198.553C281.676 199.533 280.773 199.55 279.545 199.15L278.625 202.175C279.256 202.431 280.185 202.593 281.182 202.593ZM292.93 202.593H297.098V195.561H297.183C297.712 196.772 298.888 197.871 300.865 197.871C303.763 197.871 306.098 195.604 306.098 191.147C306.098 186.527 303.626 184.422 300.891 184.422C298.82 184.422 297.686 185.632 297.183 186.834H297.055V184.593H292.93V202.593ZM297.013 191.138C297.013 188.999 297.899 187.678 299.425 187.678C300.967 187.678 301.82 189.033 301.82 191.138C301.82 193.252 300.967 194.624 299.425 194.624C297.899 194.624 297.013 193.26 297.013 191.138ZM315.671 184.593H313.31V181.456H309.143V184.593H307.413V187.661H309.143V194.027C309.117 196.678 310.839 198.007 313.779 197.871C314.785 197.82 315.509 197.615 315.91 197.496L315.279 194.488C315.1 194.53 314.683 194.615 314.367 194.615C313.694 194.615 313.31 194.343 313.31 193.567V187.661H315.671V184.593ZM323.768 197.931C327.884 197.931 330.381 195.212 330.381 191.181C330.381 187.141 327.884 184.422 323.768 184.422C319.651 184.422 317.154 187.141 317.154 191.181C317.154 195.212 319.651 197.931 323.768 197.931ZM323.793 194.786C322.251 194.786 321.398 193.32 321.398 191.155C321.398 188.982 322.251 187.507 323.793 187.507C325.285 187.507 326.137 188.982 326.137 191.155C326.137 193.32 325.285 194.786 323.793 194.786ZM337.417 180.229H333.13L333.522 192.34H337.025L337.417 180.229ZM335.278 197.931C336.445 197.931 337.477 196.942 337.494 195.715C337.477 194.505 336.445 193.525 335.278 193.525C334.05 193.525 333.045 194.505 333.062 195.715C333.045 196.942 334.05 197.931 335.278 197.931Z" fill="white"/>
<path opacity="0.9" d="M232.409 242.684H233.818V237.479H238.864V236.229H233.818V232.297H239.386V231.047H232.409V242.684ZM244.186 242.888C245.709 242.888 246.504 242.07 246.777 241.502H246.845V242.684H248.186V236.934C248.186 234.161 246.072 233.843 244.959 233.843C243.641 233.843 242.141 234.297 241.459 235.888L242.732 236.343C243.027 235.706 243.726 235.025 245.004 235.025C246.237 235.025 246.845 235.678 246.845 236.797V236.843C246.845 237.49 246.186 237.434 244.595 237.638C242.976 237.848 241.209 238.206 241.209 240.206C241.209 241.911 242.527 242.888 244.186 242.888ZM244.391 241.684C243.322 241.684 242.55 241.206 242.55 240.275C242.55 239.252 243.482 238.934 244.527 238.797C245.095 238.729 246.618 238.57 246.845 238.297V239.525C246.845 240.615 245.982 241.684 244.391 241.684ZM256.815 235.911C256.395 234.672 255.452 233.843 253.724 233.843C251.884 233.843 250.52 234.888 250.52 236.365C250.52 237.57 251.236 238.377 252.838 238.752L254.293 239.093C255.173 239.297 255.588 239.718 255.588 240.32C255.588 241.07 254.793 241.684 253.543 241.684C252.446 241.684 251.759 241.212 251.52 240.275L250.247 240.593C250.56 242.076 251.781 242.865 253.565 242.865C255.594 242.865 256.974 241.757 256.974 240.252C256.974 239.036 256.213 238.269 254.656 237.888L253.361 237.57C252.327 237.314 251.861 236.968 251.861 236.297C251.861 235.547 252.656 235.002 253.724 235.002C254.895 235.002 255.378 235.65 255.611 236.252L256.815 235.911ZM262.788 233.956H260.925V231.865H259.584V233.956H258.266V235.093H259.584V240.547C259.584 242.07 260.811 242.797 261.947 242.797C262.447 242.797 262.766 242.706 262.947 242.638L262.675 241.434C262.561 241.456 262.379 241.502 262.084 241.502C261.493 241.502 260.925 241.32 260.925 240.184V235.093H262.788V233.956Z" fill="white"/>
<path opacity="0.9" d="M309.364 234.684H310.818C310.386 232.434 308.5 230.888 306.045 230.888C303.062 230.888 300.955 233.184 300.955 236.865C300.955 240.547 303.045 242.843 306.136 242.843C308.909 242.843 310.886 240.996 310.886 238.115V236.865H306.455V238.115H309.523C309.483 240.206 308.108 241.525 306.136 241.525C303.977 241.525 302.318 239.888 302.318 236.865C302.318 233.843 303.977 232.206 306.045 232.206C307.727 232.206 308.869 233.155 309.364 234.684ZM314.459 231.047H313.118V242.684H314.459V231.047ZM320.46 242.865C322.824 242.865 324.415 241.07 324.415 238.365C324.415 235.638 322.824 233.843 320.46 233.843C318.097 233.843 316.506 235.638 316.506 238.365C316.506 241.07 318.097 242.865 320.46 242.865ZM320.46 241.661C318.665 241.661 317.847 240.115 317.847 238.365C317.847 236.615 318.665 235.047 320.46 235.047C322.256 235.047 323.074 236.615 323.074 238.365C323.074 240.115 322.256 241.661 320.46 241.661ZM326.643 242.684H327.939V241.343H328.098C328.393 241.82 328.962 242.865 330.643 242.865C332.825 242.865 334.348 241.115 334.348 238.343C334.348 235.593 332.825 233.843 330.621 233.843C328.916 233.843 328.393 234.888 328.098 235.343H327.984V231.047H326.643V242.684ZM327.962 238.32C327.962 236.365 328.825 235.047 330.462 235.047C332.166 235.047 333.007 236.479 333.007 238.32C333.007 240.184 332.143 241.661 330.462 241.661C328.848 241.661 327.962 240.297 327.962 238.32ZM338.967 242.888C340.49 242.888 341.286 242.07 341.558 241.502H341.626V242.684H342.967V236.934C342.967 234.161 340.854 233.843 339.74 233.843C338.422 233.843 336.922 234.297 336.24 235.888L337.513 236.343C337.808 235.706 338.507 235.025 339.786 235.025C341.018 235.025 341.626 235.678 341.626 236.797V236.843C341.626 237.49 340.967 237.434 339.376 237.638C337.757 237.848 335.99 238.206 335.99 240.206C335.99 241.911 337.308 242.888 338.967 242.888ZM339.172 241.684C338.104 241.684 337.331 241.206 337.331 240.275C337.331 239.252 338.263 238.934 339.308 238.797C339.876 238.729 341.399 238.57 341.626 238.297V239.525C341.626 240.615 340.763 241.684 339.172 241.684ZM346.756 231.047H345.415V242.684H346.756V231.047Z" fill="white"/>
<path opacity="0.9" d="M391.773 233.956H393.136C393.074 232.201 391.455 230.888 389.205 230.888C386.977 230.888 385.227 232.184 385.227 234.138C385.227 235.706 386.364 236.638 388.182 237.161L389.614 237.57C390.841 237.911 391.932 238.343 391.932 239.502C391.932 240.775 390.705 241.615 389.091 241.615C387.705 241.615 386.477 241.002 386.364 239.684H384.909C385.045 241.593 386.591 242.888 389.091 242.888C391.773 242.888 393.295 241.411 393.295 239.525C393.295 237.343 391.227 236.638 390.023 236.32L388.841 236.002C387.977 235.775 386.591 235.32 386.591 234.07C386.591 232.956 387.614 232.138 389.159 232.138C390.568 232.138 391.636 232.809 391.773 233.956ZM399.089 242.865C400.862 242.865 402.158 241.979 402.567 240.661L401.271 240.297C400.93 241.206 400.141 241.661 399.089 241.661C397.516 241.661 396.43 240.644 396.368 238.775H402.703V238.206C402.703 234.956 400.771 233.843 398.953 233.843C396.589 233.843 395.021 235.706 395.021 238.388C395.021 241.07 396.567 242.865 399.089 242.865ZM396.368 237.615C396.459 236.257 397.419 235.047 398.953 235.047C400.408 235.047 401.339 236.138 401.339 237.615H396.368ZM408.288 242.865C410.22 242.865 411.493 241.684 411.72 240.138H410.379C410.129 241.093 409.334 241.661 408.288 241.661C406.697 241.661 405.675 240.343 405.675 238.32C405.675 236.343 406.72 235.047 408.288 235.047C409.47 235.047 410.175 235.775 410.379 236.57H411.72C411.493 234.934 410.107 233.843 408.266 233.843C405.902 233.843 404.334 235.706 404.334 238.365C404.334 240.979 405.834 242.865 408.288 242.865ZM419.18 239.115C419.18 240.752 417.93 241.502 416.93 241.502C415.817 241.502 415.021 240.684 415.021 239.411V233.956H413.68V239.502C413.68 241.729 414.862 242.797 416.499 242.797C417.817 242.797 418.68 242.093 419.089 241.206H419.18V242.684H420.521V233.956H419.18V239.115ZM422.977 242.684H424.318V237.161C424.318 235.979 425.25 235.115 426.523 235.115C426.881 235.115 427.25 235.184 427.341 235.206V233.843C427.188 233.831 426.835 233.82 426.636 233.82C425.591 233.82 424.682 234.411 424.364 235.275H424.273V233.956H422.977V242.684ZM432.324 242.865C434.097 242.865 435.392 241.979 435.801 240.661L434.506 240.297C434.165 241.206 433.375 241.661 432.324 241.661C430.75 241.661 429.665 240.644 429.602 238.775H435.938V238.206C435.938 234.956 434.006 233.843 432.188 233.843C429.824 233.843 428.256 235.706 428.256 238.388C428.256 241.07 429.801 242.865 432.324 242.865ZM429.602 237.615C429.693 236.257 430.653 235.047 432.188 235.047C433.642 235.047 434.574 236.138 434.574 237.615H429.602Z" fill="white"/>
<path opacity="0.9" d="M475.818 231.047H474.409V242.684H475.818V231.047ZM479.803 237.434C479.803 235.911 480.746 235.047 482.03 235.047C483.274 235.047 484.03 235.86 484.03 237.229V242.684H485.371V237.138C485.371 234.911 484.183 233.843 482.416 233.843C481.098 233.843 480.28 234.434 479.871 235.32H479.757V233.956H478.462V242.684H479.803V237.434ZM491.616 233.956H489.753V231.865H488.412V233.956H487.094V235.093H488.412V240.547C488.412 242.07 489.639 242.797 490.776 242.797C491.276 242.797 491.594 242.706 491.776 242.638L491.503 241.434C491.389 241.456 491.207 241.502 490.912 241.502C490.321 241.502 489.753 241.32 489.753 240.184V235.093H491.616V233.956ZM497.199 242.865C498.972 242.865 500.267 241.979 500.676 240.661L499.381 240.297C499.04 241.206 498.25 241.661 497.199 241.661C495.625 241.661 494.54 240.644 494.477 238.775H500.812V238.206C500.812 234.956 498.881 233.843 497.062 233.843C494.699 233.843 493.131 235.706 493.131 238.388C493.131 241.07 494.676 242.865 497.199 242.865ZM494.477 237.615C494.568 236.257 495.528 235.047 497.062 235.047C498.517 235.047 499.449 236.138 499.449 237.615H494.477ZM502.852 242.684H504.193V237.161C504.193 235.979 505.125 235.115 506.398 235.115C506.756 235.115 507.125 235.184 507.216 235.206V233.843C507.062 233.831 506.71 233.82 506.511 233.82C505.466 233.82 504.557 234.411 504.239 235.275H504.148V233.956H502.852V242.684ZM512.085 242.865C514.449 242.865 516.04 241.07 516.04 238.365C516.04 235.638 514.449 233.843 512.085 233.843C509.722 233.843 508.131 235.638 508.131 238.365C508.131 241.07 509.722 242.865 512.085 242.865ZM512.085 241.661C510.29 241.661 509.472 240.115 509.472 238.365C509.472 236.615 510.29 235.047 512.085 235.047C513.881 235.047 514.699 236.615 514.699 238.365C514.699 240.115 513.881 241.661 512.085 241.661ZM518.087 245.956H519.428V241.343H519.541C519.837 241.82 520.405 242.865 522.087 242.865C524.268 242.865 525.791 241.115 525.791 238.343C525.791 235.593 524.268 233.843 522.064 233.843C520.359 233.843 519.837 234.888 519.541 235.343H519.382V233.956H518.087V245.956ZM519.405 238.32C519.405 236.365 520.268 235.047 521.905 235.047C523.609 235.047 524.45 236.479 524.45 238.32C524.45 240.184 523.587 241.661 521.905 241.661C520.291 241.661 519.405 240.297 519.405 238.32ZM531.496 242.865C533.268 242.865 534.564 241.979 534.973 240.661L533.678 240.297C533.337 241.206 532.547 241.661 531.496 241.661C529.922 241.661 528.837 240.644 528.774 238.775H535.109V238.206C535.109 234.956 533.178 233.843 531.359 233.843C528.996 233.843 527.428 235.706 527.428 238.388C527.428 241.07 528.973 242.865 531.496 242.865ZM528.774 237.615C528.865 236.257 529.825 235.047 531.359 235.047C532.814 235.047 533.746 236.138 533.746 237.615H528.774ZM537.149 242.684H538.49V237.161C538.49 235.979 539.422 235.115 540.695 235.115C541.053 235.115 541.422 235.184 541.513 235.206V233.843C541.359 233.831 541.007 233.82 540.808 233.82C539.763 233.82 538.854 234.411 538.536 235.275H538.445V233.956H537.149V242.684ZM545.67 242.888C547.193 242.888 547.989 242.07 548.261 241.502H548.33V242.684H549.67V236.934C549.67 234.161 547.557 233.843 546.443 233.843C545.125 233.843 543.625 234.297 542.943 235.888L544.216 236.343C544.511 235.706 545.21 235.025 546.489 235.025C547.722 235.025 548.33 235.678 548.33 236.797V236.843C548.33 237.49 547.67 237.434 546.08 237.638C544.46 237.848 542.693 238.206 542.693 240.206C542.693 241.911 544.011 242.888 545.67 242.888ZM545.875 241.684C544.807 241.684 544.034 241.206 544.034 240.275C544.034 239.252 544.966 238.934 546.011 238.797C546.58 238.729 548.102 238.57 548.33 238.297V239.525C548.33 240.615 547.466 241.684 545.875 241.684ZM552.3 242.684H553.595V241.343H553.754C554.05 241.82 554.618 242.865 556.3 242.865C558.482 242.865 560.004 241.115 560.004 238.343C560.004 235.593 558.482 233.843 556.277 233.843C554.572 233.843 554.05 234.888 553.754 235.343H553.641V231.047H552.3V242.684ZM553.618 238.32C553.618 236.365 554.482 235.047 556.118 235.047C557.822 235.047 558.663 236.479 558.663 238.32C558.663 240.184 557.8 241.661 556.118 241.661C554.504 241.661 553.618 240.297 553.618 238.32ZM563.396 231.047H562.055V242.684H563.396V231.047ZM569.511 242.865C571.284 242.865 572.58 241.979 572.989 240.661L571.693 240.297C571.352 241.206 570.562 241.661 569.511 241.661C567.938 241.661 566.852 240.644 566.79 238.775H573.125V238.206C573.125 234.956 571.193 233.843 569.375 233.843C567.011 233.843 565.443 235.706 565.443 238.388C565.443 241.07 566.989 242.865 569.511 242.865ZM566.79 237.615C566.881 236.257 567.841 235.047 569.375 235.047C570.83 235.047 571.761 236.138 571.761 237.615H566.79Z" fill="white"/>
<path d="M233 319.275H247.136V356.684H258.227V319.275H272.341V310.138H233V319.275ZM288.949 336.775C288.972 332.797 291.335 330.434 294.858 330.434C298.426 330.434 300.494 332.729 300.472 336.615V356.684H311.585V334.434C311.608 326.525 306.79 321.32 299.449 321.32C294.222 321.32 290.54 323.888 288.972 328.184H288.585V310.138H277.835V356.684H288.949V336.775ZM334.841 357.343C344 357.343 350.023 352.911 351.295 346.047L341.091 345.752C340.227 348.07 337.955 349.32 335.045 349.32C330.773 349.32 328.136 346.479 328.136 342.206V341.911H351.409V339.138C351.409 327.638 344.409 321.32 334.5 321.32C323.955 321.32 317.182 328.547 317.182 339.365C317.182 350.547 323.864 357.343 334.841 357.343ZM328.136 335.456C328.295 331.979 331.045 329.343 334.727 329.343C338.386 329.343 341.023 331.888 341.068 335.456H328.136ZM390.676 321.775H384.017V319.82C384.017 317.82 384.835 316.593 387.426 316.593C388.472 316.593 389.744 316.82 390.562 317.07L392.335 308.934C391.017 308.57 387.994 307.956 384.926 307.956C377.812 307.956 372.926 311.911 372.926 320.002V321.775H368.222V329.956H372.926V356.684H384.017V329.956H390.676V321.775ZM418.545 341.615C418.545 345.684 415.955 347.956 412.659 347.956C409.25 347.956 407.159 345.638 407.136 341.843V321.775H396.023V344.025C396.045 351.911 400.841 357.138 408.023 357.138C413.25 357.138 417.136 354.456 418.682 350.184H419.045V356.684H429.636V321.775H418.545V341.615ZM456.415 321.775H450.119V313.411H439.006V321.775H434.392V329.956H439.006V346.934C438.938 354.002 443.528 357.547 451.369 357.184C454.051 357.047 455.983 356.502 457.051 356.184L455.369 348.161C454.892 348.275 453.778 348.502 452.938 348.502C451.142 348.502 450.119 347.775 450.119 345.706V329.956H456.415V321.775ZM484.608 341.615C484.608 345.684 482.017 347.956 478.722 347.956C475.312 347.956 473.222 345.638 473.199 341.843V321.775H462.085V344.025C462.108 351.911 466.903 357.138 474.085 357.138C479.312 357.138 483.199 354.456 484.744 350.184H485.108V356.684H495.699V321.775H484.608V341.615ZM502.773 356.684H513.886V337.729C513.886 333.57 516.841 330.775 520.818 330.775C522.136 330.775 524.114 331.002 525.182 331.365V321.706C524.25 321.456 523.091 321.297 522.068 321.297C518.25 321.297 515.205 323.525 513.932 328.138H513.568V321.775H502.773V356.684ZM544.216 357.343C553.375 357.343 559.398 352.911 560.67 346.047L550.466 345.752C549.602 348.07 547.33 349.32 544.42 349.32C540.148 349.32 537.511 346.479 537.511 342.206V341.911H560.784V339.138C560.784 327.638 553.784 321.32 543.875 321.32C533.33 321.32 526.557 328.547 526.557 339.365C526.557 350.547 533.239 357.343 544.216 357.343ZM537.511 335.456C537.67 331.979 540.42 329.343 544.102 329.343C547.761 329.343 550.398 331.888 550.443 335.456H537.511ZM596.506 357.343C607.483 357.343 614.142 350.093 614.142 339.343C614.142 328.57 607.483 321.32 596.506 321.32C585.528 321.32 578.869 328.57 578.869 339.343C578.869 350.093 585.528 357.343 596.506 357.343ZM596.574 348.956C592.46 348.956 590.188 345.047 590.188 339.275C590.188 333.479 592.46 329.547 596.574 329.547C600.551 329.547 602.824 333.479 602.824 339.275C602.824 345.047 600.551 348.956 596.574 348.956ZM639.676 321.775H633.017V319.82C633.017 317.82 633.835 316.593 636.426 316.593C637.472 316.593 638.744 316.82 639.562 317.07L641.335 308.934C640.017 308.57 636.994 307.956 633.926 307.956C626.812 307.956 621.926 311.911 621.926 320.002V321.775H617.222V329.956H621.926V356.684H633.017V329.956H639.676V321.775ZM701.023 327.002C699.886 315.865 691.591 309.502 680.341 309.502C667.932 309.502 658.273 318.025 658.273 333.411C658.273 348.729 667.705 357.32 680.341 357.32C693.114 357.32 700.182 348.638 701.023 340.388L689.659 340.32C688.864 344.797 685.5 347.456 680.568 347.456C673.932 347.456 669.75 342.661 669.75 333.411C669.75 324.525 673.841 319.365 680.636 319.365C685.75 319.365 689.091 322.343 689.659 327.002H701.023ZM723.756 357.343C734.733 357.343 741.392 350.093 741.392 339.343C741.392 328.57 734.733 321.32 723.756 321.32C712.778 321.32 706.119 328.57 706.119 339.343C706.119 350.093 712.778 357.343 723.756 357.343ZM723.824 348.956C719.71 348.956 717.438 345.047 717.438 339.275C717.438 333.479 719.71 329.547 723.824 329.547C727.801 329.547 730.074 333.479 730.074 339.275C730.074 345.047 727.801 348.956 723.824 348.956ZM256.864 410.57H235.318V419.138H256.864V410.57ZM303.46 387.138H292.21V433.684H303.46V387.138ZM330.227 398.775H323.932V390.411H312.818V398.775H308.205V406.956H312.818V423.934C312.75 431.002 317.341 434.547 325.182 434.184C327.864 434.047 329.795 433.502 330.864 433.184L329.182 425.161C328.705 425.275 327.591 425.502 326.75 425.502C324.955 425.502 323.932 424.775 323.932 422.706V406.956H330.227V398.775ZM349.648 433.684H360.898V419.229H368.534C379.193 419.229 385.852 412.911 385.852 403.252C385.852 393.684 379.33 387.138 368.875 387.138H349.648V433.684ZM360.898 410.365V396.206H366.443C371.489 396.206 374.193 398.934 374.193 403.252C374.193 407.547 371.489 410.365 366.443 410.365H360.898ZM391.307 433.684H425.761V424.615H406.898V424.32L412.466 419.184C422.557 410.388 425.193 405.911 425.193 400.57C425.193 392.184 418.352 386.502 407.784 386.502C397.489 386.502 390.602 392.434 390.625 401.911H401.284C401.284 397.706 403.875 395.275 407.739 395.275C411.534 395.275 414.284 397.615 414.284 401.456C414.284 404.934 412.102 407.297 408.284 410.729L391.307 425.593V433.684ZM432.21 433.684H443.46V419.229H451.097C461.756 419.229 468.415 412.911 468.415 403.252C468.415 393.684 461.892 387.138 451.438 387.138H432.21V433.684ZM443.46 410.365V396.206H449.006C454.051 396.206 456.756 398.934 456.756 403.252C456.756 407.547 454.051 410.365 449.006 410.365H443.46ZM487.028 387.138H475.597L476.642 419.434H485.983L487.028 387.138ZM481.324 434.343C484.438 434.343 487.188 431.706 487.233 428.434C487.188 425.206 484.438 422.593 481.324 422.593C478.051 422.593 475.369 425.206 475.415 428.434C475.369 431.706 478.051 434.343 481.324 434.343Z" fill="white"/>
<path d="M747.085 356.684H758.199V336.025C758.199 332.57 760.222 330.365 763.131 330.365C766.017 330.365 767.926 332.388 767.926 335.615V356.684H778.608V335.843C778.608 332.502 780.449 330.365 783.517 330.365C786.335 330.365 788.335 332.252 788.335 335.729V356.684H799.449V333.184C799.449 325.797 794.903 321.32 788.312 321.32C783.153 321.32 779.085 324.025 777.79 328.184H777.426C776.494 324.002 772.744 321.32 767.903 321.32C763.131 321.32 759.494 323.934 758.04 328.184H757.653V321.775H747.085V356.684ZM806.335 356.684H817.449V336.025C817.449 332.57 819.472 330.365 822.381 330.365C825.267 330.365 827.176 332.388 827.176 335.615V356.684H837.858V335.843C837.858 332.502 839.699 330.365 842.767 330.365C845.585 330.365 847.585 332.252 847.585 335.729V356.684H858.699V333.184C858.699 325.797 854.153 321.32 847.562 321.32C842.403 321.32 838.335 324.025 837.04 328.184H836.676C835.744 324.002 831.994 321.32 827.153 321.32C822.381 321.32 818.744 323.934 817.29 328.184H816.903V321.775H806.335V356.684ZM881.903 357.343C891.062 357.343 897.085 352.911 898.358 346.047L888.153 345.752C887.29 348.07 885.017 349.32 882.108 349.32C877.835 349.32 875.199 346.479 875.199 342.206V341.911H898.472V339.138C898.472 327.638 891.472 321.32 881.562 321.32C871.017 321.32 864.244 328.547 864.244 339.365C864.244 350.547 870.926 357.343 881.903 357.343ZM875.199 335.456C875.358 331.979 878.108 329.343 881.79 329.343C885.449 329.343 888.085 331.888 888.131 335.456H875.199ZM904.148 356.684H915.261V337.729C915.261 333.57 918.216 330.775 922.193 330.775C923.511 330.775 925.489 331.002 926.557 331.365V321.706C925.625 321.456 924.466 321.297 923.443 321.297C919.625 321.297 916.58 323.525 915.307 328.138H914.943V321.775H904.148V356.684ZM947.381 357.343C957.199 357.343 963.29 351.638 963.585 343.002H953.199C952.79 346.706 950.562 348.729 947.517 348.729C943.608 348.729 941.062 345.434 941.062 339.229C941.062 333.07 943.631 329.775 947.517 329.775C950.699 329.775 952.767 331.934 953.199 335.502H963.585C963.335 326.911 957.062 321.32 947.358 321.32C936.381 321.32 929.744 328.638 929.744 339.343C929.744 350.002 936.335 357.343 947.381 357.343ZM985.591 357.343C994.75 357.343 1000.77 352.911 1002.05 346.047L991.841 345.752C990.977 348.07 988.705 349.32 985.795 349.32C981.523 349.32 978.886 346.479 978.886 342.206V341.911H1002.16V339.138C1002.16 327.638 995.159 321.32 985.25 321.32C974.705 321.32 967.932 328.547 967.932 339.365C967.932 350.547 974.614 357.343 985.591 357.343ZM978.886 335.456C979.045 331.979 981.795 329.343 985.477 329.343C989.136 329.343 991.773 331.888 991.818 335.456H978.886ZM1016.59 342.434H1026.27V341.502C1026.27 337.479 1027.93 335.547 1031.36 333.502C1035.72 330.934 1038.61 327.638 1038.61 322.206C1038.61 313.956 1031.81 309.502 1022.45 309.502C1013.9 309.502 1006.86 313.752 1006.72 323.297H1017.18C1017.24 320.138 1019.65 318.229 1022.36 318.229C1025.04 318.229 1027.18 320.025 1027.18 322.729C1027.18 325.502 1025.02 327.275 1022.18 329.093C1018.56 331.411 1016.61 333.797 1016.59 341.502V342.434ZM1021.61 357.343C1024.72 357.343 1027.47 354.706 1027.52 351.434C1027.47 348.206 1024.72 345.593 1021.61 345.593C1018.34 345.593 1015.65 348.206 1015.7 351.434C1015.65 354.706 1018.34 357.343 1021.61 357.343Z" fill="black"/>
</svg>
