<svg width="421" height="439" viewBox="0 0 421 439" fill="none" xmlns="http://www.w3.org/2000/svg">
<path d="M350.081 133.873C333.428 157.504 314.521 176.189 297.421 187.298C288.87 192.853 280.778 196.51 273.65 197.948C266.522 199.386 260.373 198.602 255.687 195.3C251 191.997 248.194 186.469 247.151 179.273C246.108 172.077 246.83 163.226 249.186 153.305C253.897 133.465 265.135 109.375 281.788 85.7449C298.442 62.1148 317.348 43.4295 334.449 32.3199C342.999 26.7648 351.092 23.1082 358.22 21.6705C365.347 20.2328 371.497 21.0158 376.183 24.3186C380.87 27.6214 383.675 33.149 384.718 40.345C385.762 47.5414 385.04 56.3921 382.684 66.3129C377.972 86.1537 366.734 110.243 350.081 133.873Z" stroke="black" stroke-width="0.304919"/>
<circle cx="210.5" cy="228.521" r="210.479" fill="black"/>
<path d="M92.8179 101.966H96.352V111.318H99.1247V101.966H102.653V99.682H92.8179V101.966ZM106.805 106.341C106.811 105.347 107.402 104.756 108.282 104.756C109.174 104.756 109.691 105.33 109.686 106.301V111.318H112.464V105.756C112.47 103.779 111.265 102.477 109.43 102.477C108.123 102.477 107.203 103.119 106.811 104.193H106.714V99.682H104.027V111.318H106.805V106.341ZM118.278 111.483C120.568 111.483 122.074 110.375 122.392 108.659L119.841 108.585C119.625 109.165 119.057 109.477 118.329 109.477C117.261 109.477 116.602 108.767 116.602 107.699V107.625H122.42V106.932C122.42 104.057 120.67 102.477 118.193 102.477C115.557 102.477 113.863 104.284 113.863 106.989C113.863 109.784 115.534 111.483 118.278 111.483ZM116.602 106.012C116.642 105.142 117.329 104.483 118.25 104.483C119.164 104.483 119.824 105.119 119.835 106.012H116.602ZM132.237 102.591H130.572V102.102C130.572 101.602 130.777 101.296 131.424 101.296C131.686 101.296 132.004 101.352 132.208 101.415L132.652 99.3809C132.322 99.29 131.566 99.1365 130.799 99.1365C129.021 99.1365 127.799 100.125 127.799 102.148V102.591H126.623V104.637H127.799V111.318H130.572V104.637H132.237V102.591ZM139.204 107.551C139.204 108.568 138.557 109.137 137.733 109.137C136.88 109.137 136.358 108.557 136.352 107.608V102.591H133.574V108.154C133.579 110.125 134.778 111.432 136.574 111.432C137.88 111.432 138.852 110.762 139.238 109.693H139.329V111.318H141.977V102.591H139.204V107.551ZM148.672 102.591H147.098V100.5H144.319V102.591H143.166V104.637H144.319V108.881C144.302 110.648 145.45 111.534 147.41 111.443C148.081 111.409 148.564 111.273 148.831 111.193L148.41 109.188C148.291 109.216 148.012 109.273 147.802 109.273C147.353 109.273 147.098 109.091 147.098 108.574V104.637H148.672V102.591ZM155.72 107.551C155.72 108.568 155.072 109.137 154.248 109.137C153.396 109.137 152.873 108.557 152.868 107.608V102.591H150.089V108.154C150.095 110.125 151.294 111.432 153.089 111.432C154.396 111.432 155.368 110.762 155.754 109.693H155.845V111.318H158.493V102.591H155.72V107.551ZM160.261 111.318H163.039V106.58C163.039 105.54 163.778 104.841 164.772 104.841C165.102 104.841 165.596 104.898 165.863 104.989V102.574C165.63 102.512 165.341 102.472 165.085 102.472C164.13 102.472 163.369 103.029 163.051 104.182H162.96V102.591H160.261V111.318ZM170.622 111.483C172.912 111.483 174.417 110.375 174.735 108.659L172.184 108.585C171.968 109.165 171.4 109.477 170.673 109.477C169.605 109.477 168.946 108.767 168.946 107.699V107.625H174.764V106.932C174.764 104.057 173.014 102.477 170.537 102.477C167.9 102.477 166.207 104.284 166.207 106.989C166.207 109.784 167.878 111.483 170.622 111.483ZM168.946 106.012C168.985 105.142 169.673 104.483 170.593 104.483C171.508 104.483 172.167 105.119 172.179 106.012H168.946ZM183.694 111.483C186.439 111.483 188.103 109.671 188.103 106.983C188.103 104.29 186.439 102.477 183.694 102.477C180.95 102.477 179.285 104.29 179.285 106.983C179.285 109.671 180.95 111.483 183.694 111.483ZM183.711 109.387C182.683 109.387 182.115 108.409 182.115 106.966C182.115 105.517 182.683 104.534 183.711 104.534C184.706 104.534 185.274 105.517 185.274 106.966C185.274 108.409 184.706 109.387 183.711 109.387ZM194.487 102.591H192.822V102.102C192.822 101.602 193.027 101.296 193.674 101.296C193.936 101.296 194.254 101.352 194.458 101.415L194.902 99.3809C194.572 99.29 193.816 99.1365 193.049 99.1365C191.271 99.1365 190.049 100.125 190.049 102.148V102.591H188.873V104.637H190.049V111.318H192.822V104.637H194.487V102.591ZM199.261 114.591H202.039V109.904H202.096C202.449 110.71 203.233 111.443 204.551 111.443C206.483 111.443 208.039 109.932 208.039 106.96C208.039 103.881 206.392 102.477 204.568 102.477C203.187 102.477 202.432 103.284 202.096 104.085H202.011V102.591H199.261V114.591ZM201.983 106.955C201.983 105.529 202.574 104.648 203.591 104.648C204.619 104.648 205.187 105.551 205.187 106.955C205.187 108.364 204.619 109.279 203.591 109.279C202.574 109.279 201.983 108.369 201.983 106.955ZM211.956 111.466C213.172 111.466 214.012 110.994 214.49 110.102H214.558V111.318H217.172V105.387C217.172 103.54 215.53 102.477 213.308 102.477C210.961 102.477 209.632 103.659 209.41 105.25L211.973 105.341C212.092 104.784 212.552 104.443 213.285 104.443C213.967 104.443 214.399 104.773 214.399 105.358V105.387C214.399 105.921 213.819 106.034 212.331 106.165C210.564 106.313 209.086 106.966 209.086 108.898C209.086 110.625 210.285 111.466 211.956 111.466ZM212.814 109.648C212.172 109.648 211.717 109.341 211.717 108.762C211.717 108.199 212.16 107.858 212.95 107.739C213.467 107.665 214.103 107.551 214.416 107.387V108.216C214.416 109.068 213.7 109.648 212.814 109.648ZM220.257 114.591C222.257 114.591 223.251 113.58 223.734 112.154L227.024 102.597L224.098 102.591L222.467 108.818H222.376L220.768 102.591H217.859L220.961 111.637L220.853 111.898C220.586 112.551 219.984 112.563 219.166 112.296L218.552 114.313C218.973 114.483 219.592 114.591 220.257 114.591ZM228.089 111.318H230.868V106.154C230.868 105.29 231.373 104.739 232.101 104.739C232.822 104.739 233.299 105.244 233.299 106.051V111.318H235.97V106.108C235.97 105.273 236.43 104.739 237.197 104.739C237.902 104.739 238.402 105.21 238.402 106.08V111.318H241.18V105.443C241.18 103.597 240.044 102.477 238.396 102.477C237.106 102.477 236.089 103.154 235.765 104.193H235.674C235.441 103.148 234.504 102.477 233.294 102.477C232.101 102.477 231.191 103.131 230.828 104.193H230.731V102.591H228.089V111.318ZM246.981 111.483C249.271 111.483 250.777 110.375 251.095 108.659L248.544 108.585C248.328 109.165 247.76 109.477 247.032 109.477C245.964 109.477 245.305 108.767 245.305 107.699V107.625H251.123V106.932C251.123 104.057 249.373 102.477 246.896 102.477C244.26 102.477 242.566 104.284 242.566 106.989C242.566 109.784 244.237 111.483 246.981 111.483ZM245.305 106.012C245.345 105.142 246.032 104.483 246.953 104.483C247.868 104.483 248.527 105.119 248.538 106.012H245.305ZM255.321 106.341C255.326 105.347 255.906 104.756 256.787 104.756C257.667 104.756 258.19 105.335 258.184 106.301V111.318H260.963V105.756C260.968 103.79 259.77 102.477 257.934 102.477C256.645 102.477 255.667 103.131 255.281 104.193H255.184V102.591H252.542V111.318H255.321V106.341ZM267.609 102.591H266.035V100.5H263.257V102.591H262.103V104.637H263.257V108.881C263.24 110.648 264.387 111.534 266.348 111.443C267.018 111.409 267.501 111.273 267.768 111.193L267.348 109.188C267.228 109.216 266.95 109.273 266.74 109.273C266.291 109.273 266.035 109.091 266.035 108.574V104.637H267.609V102.591ZM276.537 105.256C276.389 103.529 274.974 102.477 272.61 102.477C270.247 102.477 268.741 103.506 268.753 105.256C268.741 106.597 269.599 107.46 271.343 107.784L272.866 108.074C273.588 108.216 273.917 108.443 273.929 108.83C273.917 109.267 273.429 109.557 272.718 109.557C271.929 109.557 271.395 109.216 271.275 108.58L268.531 108.648C268.73 110.375 270.213 111.483 272.707 111.483C275.042 111.483 276.741 110.318 276.753 108.523C276.741 107.25 275.9 106.494 274.162 106.159L272.48 105.841C271.741 105.693 271.503 105.432 271.508 105.097C271.503 104.654 272.02 104.381 272.662 104.381C273.395 104.381 273.906 104.773 273.985 105.324L276.537 105.256ZM93.1986 130.318H95.977V121.591H93.1986V130.318ZM94.5906 120.574C95.3804 120.574 96.0167 119.977 96.0167 119.244C96.0167 118.512 95.3804 117.921 94.5906 117.921C93.8065 117.921 93.1645 118.512 93.1645 119.244C93.1645 119.977 93.8065 120.574 94.5906 120.574ZM102.672 121.591H101.098V119.5H98.3193V121.591H97.1659V123.637H98.3193V127.881C98.3022 129.648 99.45 130.534 101.41 130.443C102.081 130.409 102.564 130.273 102.831 130.193L102.41 128.188C102.291 128.216 102.012 128.273 101.802 128.273C101.353 128.273 101.098 128.091 101.098 127.574V123.637H102.672V121.591ZM111.601 130.483C114.055 130.483 115.578 129.057 115.652 126.898H113.055C112.953 127.824 112.396 128.33 111.635 128.33C110.657 128.33 110.021 127.506 110.021 125.955C110.021 124.415 110.663 123.591 111.635 123.591C112.43 123.591 112.947 124.131 113.055 125.023H115.652C115.589 122.875 114.021 121.477 111.595 121.477C108.851 121.477 107.191 123.307 107.191 125.983C107.191 128.648 108.839 130.483 111.601 130.483ZM117.074 130.318H119.852V125.58C119.852 124.54 120.591 123.841 121.585 123.841C121.914 123.841 122.409 123.898 122.676 123.989V121.574C122.443 121.512 122.153 121.472 121.897 121.472C120.943 121.472 120.182 122.029 119.863 123.182H119.772V121.591H117.074V130.318ZM125.772 133.591C127.772 133.591 128.767 132.58 129.25 131.154L132.539 121.597L129.613 121.591L127.983 127.818H127.892L126.284 121.591H123.375L126.477 130.637L126.369 130.898C126.102 131.551 125.5 131.563 124.682 131.296L124.068 133.313C124.488 133.483 125.108 133.591 125.772 133.591ZM133.605 133.591H136.383V128.904H136.44C136.792 129.71 137.576 130.443 138.895 130.443C140.826 130.443 142.383 128.932 142.383 125.96C142.383 122.881 140.735 121.477 138.912 121.477C137.531 121.477 136.775 122.284 136.44 123.085H136.355V121.591H133.605V133.591ZM136.326 125.955C136.326 124.529 136.917 123.648 137.934 123.648C138.963 123.648 139.531 124.551 139.531 125.955C139.531 127.364 138.963 128.279 137.934 128.279C136.917 128.279 136.326 127.369 136.326 125.955ZM148.765 121.591H147.191V119.5H144.413V121.591H143.26V123.637H144.413V127.881C144.396 129.648 145.544 130.534 147.504 130.443C148.174 130.409 148.657 130.273 148.924 130.193L148.504 128.188C148.385 128.216 148.106 128.273 147.896 128.273C147.447 128.273 147.191 128.091 147.191 127.574V123.637H148.765V121.591ZM154.163 130.483C156.907 130.483 158.572 128.671 158.572 125.983C158.572 123.29 156.907 121.477 154.163 121.477C151.419 121.477 149.754 123.29 149.754 125.983C149.754 128.671 151.419 130.483 154.163 130.483ZM154.18 128.387C153.152 128.387 152.583 127.409 152.583 125.966C152.583 124.517 153.152 123.534 154.18 123.534C155.174 123.534 155.743 124.517 155.743 125.966C155.743 127.409 155.174 128.387 154.18 128.387ZM163.262 118.682H160.405L160.666 126.756H163.001L163.262 118.682ZM161.836 130.483C162.615 130.483 163.302 129.824 163.314 129.006C163.302 128.199 162.615 127.546 161.836 127.546C161.018 127.546 160.348 128.199 160.359 129.006C160.348 129.824 161.018 130.483 161.836 130.483Z" fill="white"/>
<path opacity="0.9" d="M93.3747 153.978H94.4315V150.074H98.2156V149.137H94.4315V146.188H98.6076V145.25H93.3747V153.978ZM102.207 154.131C103.349 154.131 103.946 153.517 104.151 153.091H104.202V153.978H105.207V149.665C105.207 147.585 103.622 147.347 102.787 147.347C101.798 147.347 100.673 147.688 100.162 148.881L101.117 149.222C101.338 148.745 101.862 148.233 102.821 148.233C103.746 148.233 104.202 148.723 104.202 149.563V149.597C104.202 150.083 103.707 150.04 102.514 150.193C101.3 150.351 99.9745 150.62 99.9745 152.12C99.9745 153.398 100.963 154.131 102.207 154.131ZM102.361 153.228C101.56 153.228 100.98 152.87 100.98 152.171C100.98 151.404 101.679 151.165 102.463 151.063C102.889 151.012 104.031 150.892 104.202 150.688V151.608C104.202 152.426 103.554 153.228 102.361 153.228ZM111.679 148.898C111.364 147.969 110.657 147.347 109.361 147.347C107.981 147.347 106.958 148.131 106.958 149.239C106.958 150.142 107.495 150.747 108.696 151.029L109.787 151.284C110.448 151.438 110.759 151.753 110.759 152.205C110.759 152.767 110.162 153.228 109.225 153.228C108.402 153.228 107.887 152.874 107.708 152.171L106.753 152.409C106.988 153.522 107.904 154.114 109.242 154.114C110.763 154.114 111.799 153.283 111.799 152.154C111.799 151.242 111.228 150.666 110.06 150.381L109.088 150.142C108.313 149.951 107.963 149.691 107.963 149.188C107.963 148.625 108.56 148.216 109.361 148.216C110.239 148.216 110.601 148.702 110.776 149.154L111.679 148.898ZM116.159 147.432H114.761V145.864H113.756V147.432H112.767V148.284H113.756V152.375C113.756 153.517 114.676 154.063 115.528 154.063C115.903 154.063 116.142 153.995 116.278 153.943L116.074 153.04C115.989 153.057 115.852 153.091 115.631 153.091C115.188 153.091 114.761 152.955 114.761 152.103V148.284H116.159V147.432Z" fill="white"/>
<path opacity="0.9" d="M135.318 147.978H136.409C136.085 146.29 134.67 145.131 132.829 145.131C130.592 145.131 129.011 146.853 129.011 149.614C129.011 152.375 130.579 154.097 132.897 154.097C134.977 154.097 136.46 152.712 136.46 150.551V149.614H133.136V150.551H135.437C135.407 152.12 134.376 153.108 132.897 153.108C131.278 153.108 130.034 151.881 130.034 149.614C130.034 147.347 131.278 146.12 132.829 146.12C134.09 146.12 134.947 146.831 135.318 147.978ZM139.139 145.25H138.133V153.978H139.139V145.25ZM143.64 154.114C145.413 154.114 146.606 152.767 146.606 150.739C146.606 148.693 145.413 147.347 143.64 147.347C141.867 147.347 140.674 148.693 140.674 150.739C140.674 152.767 141.867 154.114 143.64 154.114ZM143.64 153.21C142.294 153.21 141.68 152.051 141.68 150.739C141.68 149.426 142.294 148.25 143.64 148.25C144.987 148.25 145.6 149.426 145.6 150.739C145.6 152.051 144.987 153.21 143.64 153.21ZM148.278 153.978H149.249V152.972H149.368C149.59 153.33 150.016 154.114 151.278 154.114C152.914 154.114 154.056 152.801 154.056 150.722C154.056 148.659 152.914 147.347 151.26 147.347C149.982 147.347 149.59 148.131 149.368 148.472H149.283V145.25H148.278V153.978ZM149.266 150.705C149.266 149.239 149.914 148.25 151.141 148.25C152.42 148.25 153.05 149.324 153.05 150.705C153.05 152.103 152.403 153.21 151.141 153.21C149.931 153.21 149.266 152.188 149.266 150.705ZM157.52 154.131C158.662 154.131 159.259 153.517 159.464 153.091H159.515V153.978H160.52V149.665C160.52 147.585 158.935 147.347 158.1 147.347C157.111 147.347 155.986 147.688 155.475 148.881L156.43 149.222C156.651 148.745 157.175 148.233 158.134 148.233C159.059 148.233 159.515 148.723 159.515 149.563V149.597C159.515 150.083 159.02 150.04 157.827 150.193C156.613 150.351 155.287 150.62 155.287 152.12C155.287 153.398 156.276 154.131 157.52 154.131ZM157.674 153.228C156.873 153.228 156.293 152.87 156.293 152.171C156.293 151.404 156.992 151.165 157.776 151.063C158.202 151.012 159.344 150.892 159.515 150.688V151.608C159.515 152.426 158.867 153.228 157.674 153.228ZM163.362 145.25H162.356V153.978H163.362V145.25Z" fill="white"/>
<path opacity="0.9" d="M181.102 147.432H182.124C182.077 146.115 180.863 145.131 179.175 145.131C177.505 145.131 176.192 146.103 176.192 147.568C176.192 148.745 177.045 149.443 178.408 149.835L179.482 150.142C180.403 150.398 181.221 150.722 181.221 151.591C181.221 152.546 180.3 153.176 179.09 153.176C178.05 153.176 177.13 152.716 177.045 151.728H175.954C176.056 153.159 177.215 154.131 179.09 154.131C181.102 154.131 182.244 153.023 182.244 151.608C182.244 149.972 180.692 149.443 179.789 149.205L178.903 148.966C178.255 148.796 177.215 148.455 177.215 147.517C177.215 146.682 177.982 146.068 179.141 146.068C180.198 146.068 180.999 146.571 181.102 147.432ZM186.589 154.114C187.919 154.114 188.89 153.449 189.197 152.46L188.225 152.188C187.97 152.87 187.377 153.21 186.589 153.21C185.409 153.21 184.595 152.448 184.548 151.046H189.299V150.62C189.299 148.182 187.85 147.347 186.487 147.347C184.714 147.347 183.538 148.745 183.538 150.756C183.538 152.767 184.697 154.114 186.589 154.114ZM184.548 150.176C184.616 149.158 185.336 148.25 186.487 148.25C187.578 148.25 188.277 149.068 188.277 150.176H184.548ZM193.488 154.114C194.937 154.114 195.892 153.228 196.062 152.068H195.056C194.869 152.784 194.272 153.21 193.488 153.21C192.295 153.21 191.528 152.222 191.528 150.705C191.528 149.222 192.312 148.25 193.488 148.25C194.375 148.25 194.903 148.796 195.056 149.392H196.062C195.892 148.165 194.852 147.347 193.471 147.347C191.698 147.347 190.522 148.745 190.522 150.739C190.522 152.699 191.647 154.114 193.488 154.114ZM201.657 151.301C201.657 152.529 200.72 153.091 199.97 153.091C199.135 153.091 198.538 152.478 198.538 151.523V147.432H197.532V151.591C197.532 153.262 198.419 154.063 199.646 154.063C200.635 154.063 201.282 153.534 201.589 152.87H201.657V153.978H202.663V147.432H201.657V151.301ZM204.505 153.978H205.511V149.835C205.511 148.949 206.209 148.301 207.164 148.301C207.432 148.301 207.709 148.353 207.778 148.37V147.347C207.663 147.338 207.398 147.33 207.249 147.33C206.465 147.33 205.783 147.773 205.545 148.421H205.477V147.432H204.505V153.978ZM211.515 154.114C212.844 154.114 213.816 153.449 214.123 152.46L213.151 152.188C212.896 152.87 212.303 153.21 211.515 153.21C210.334 153.21 209.521 152.448 209.474 151.046H214.225V150.62C214.225 148.182 212.776 147.347 211.413 147.347C209.64 147.347 208.464 148.745 208.464 150.756C208.464 152.767 209.623 154.114 211.515 154.114ZM209.474 150.176C209.542 149.158 210.262 148.25 211.413 148.25C212.504 148.25 213.202 149.068 213.202 150.176H209.474Z" fill="white"/>
<path opacity="0.9" d="M228.363 145.25H227.306V153.978H228.363V145.25ZM231.351 150.04C231.351 148.898 232.058 148.25 233.021 148.25C233.955 148.25 234.521 148.86 234.521 149.887V153.978H235.527V149.818C235.527 148.148 234.636 147.347 233.311 147.347C232.323 147.347 231.709 147.79 231.402 148.455H231.317V147.432H230.345V153.978H231.351V150.04ZM240.211 147.432H238.814V145.864H237.808V147.432H236.819V148.284H237.808V152.375C237.808 153.517 238.728 154.063 239.581 154.063C239.956 154.063 240.194 153.995 240.331 153.943L240.126 153.04C240.041 153.057 239.905 153.091 239.683 153.091C239.24 153.091 238.814 152.955 238.814 152.103V148.284H240.211V147.432ZM244.398 154.114C245.728 154.114 246.699 153.449 247.006 152.46L246.035 152.188C245.779 152.87 245.187 153.21 244.398 153.21C243.218 153.21 242.404 152.448 242.357 151.046H247.108V150.62C247.108 148.182 245.66 147.347 244.296 147.347C242.523 147.347 241.347 148.745 241.347 150.756C241.347 152.767 242.506 154.114 244.398 154.114ZM242.357 150.176C242.425 149.158 243.145 148.25 244.296 148.25C245.387 148.25 246.086 149.068 246.086 150.176H242.357ZM248.638 153.978H249.644V149.835C249.644 148.949 250.343 148.301 251.297 148.301C251.566 148.301 251.843 148.353 251.911 148.37V147.347C251.796 147.338 251.532 147.33 251.383 147.33C250.598 147.33 249.917 147.773 249.678 148.421H249.61V147.432H248.638V153.978ZM255.563 154.114C257.336 154.114 258.529 152.767 258.529 150.739C258.529 148.693 257.336 147.347 255.563 147.347C253.79 147.347 252.597 148.693 252.597 150.739C252.597 152.767 253.79 154.114 255.563 154.114ZM255.563 153.21C254.216 153.21 253.603 152.051 253.603 150.739C253.603 149.426 254.216 148.25 255.563 148.25C256.91 148.25 257.523 149.426 257.523 150.739C257.523 152.051 256.91 153.21 255.563 153.21ZM260.064 156.432H261.07V152.972H261.155C261.377 153.33 261.803 154.114 263.064 154.114C264.7 154.114 265.842 152.801 265.842 150.722C265.842 148.659 264.7 147.347 263.047 147.347C261.769 147.347 261.377 148.131 261.155 148.472H261.036V147.432H260.064V156.432ZM261.053 150.705C261.053 149.239 261.7 148.25 262.928 148.25C264.206 148.25 264.837 149.324 264.837 150.705C264.837 152.103 264.189 153.21 262.928 153.21C261.717 153.21 261.053 152.188 261.053 150.705ZM270.121 154.114C271.45 154.114 272.422 153.449 272.729 152.46L271.757 152.188C271.502 152.87 270.909 153.21 270.121 153.21C268.94 153.21 268.127 152.448 268.08 151.046H272.831V150.62C272.831 148.182 271.382 147.347 270.019 147.347C268.246 147.347 267.07 148.745 267.07 150.756C267.07 152.767 268.229 154.114 270.121 154.114ZM268.08 150.176C268.148 149.158 268.868 148.25 270.019 148.25C271.109 148.25 271.808 149.068 271.808 150.176H268.08ZM274.361 153.978H275.367V149.835C275.367 148.949 276.065 148.301 277.02 148.301C277.288 148.301 277.565 148.353 277.634 148.37V147.347C277.519 147.338 277.254 147.33 277.105 147.33C276.321 147.33 275.639 147.773 275.401 148.421H275.332V147.432H274.361V153.978ZM280.752 154.131C281.894 154.131 282.491 153.517 282.695 153.091H282.746V153.978H283.752V149.665C283.752 147.585 282.167 147.347 281.331 147.347C280.343 147.347 279.218 147.688 278.706 148.881L279.661 149.222C279.883 148.745 280.407 148.233 281.366 148.233C282.29 148.233 282.746 148.723 282.746 149.563V149.597C282.746 150.083 282.252 150.04 281.059 150.193C279.844 150.351 278.519 150.62 278.519 152.12C278.519 153.398 279.508 154.131 280.752 154.131ZM280.905 153.228C280.104 153.228 279.525 152.87 279.525 152.171C279.525 151.404 280.223 151.165 281.008 151.063C281.434 151.012 282.576 150.892 282.746 150.688V151.608C282.746 152.426 282.098 153.228 280.905 153.228ZM285.724 153.978H286.695V152.972H286.815C287.036 153.33 287.462 154.114 288.724 154.114C290.36 154.114 291.502 152.801 291.502 150.722C291.502 148.659 290.36 147.347 288.707 147.347C287.428 147.347 287.036 148.131 286.815 148.472H286.729V145.25H285.724V153.978ZM286.712 150.705C286.712 149.239 287.36 148.25 288.587 148.25C289.866 148.25 290.497 149.324 290.497 150.705C290.497 152.103 289.849 153.21 288.587 153.21C287.377 153.21 286.712 152.188 286.712 150.705ZM294.046 145.25H293.041V153.978H294.046V145.25ZM298.633 154.114C299.962 154.114 300.934 153.449 301.241 152.46L300.269 152.188C300.013 152.87 299.421 153.21 298.633 153.21C297.452 153.21 296.638 152.448 296.591 151.046H301.343V150.62C301.343 148.182 299.894 147.347 298.53 147.347C296.758 147.347 295.581 148.745 295.581 150.756C295.581 152.767 296.741 154.114 298.633 154.114ZM296.591 150.176C296.66 149.158 297.38 148.25 298.53 148.25C299.621 148.25 300.32 149.068 300.32 150.176H296.591Z" fill="white"/>
<path d="M92.9429 179.945H97.3605V191.636H100.826V179.945H105.237V177.09H92.9429V179.945ZM110.427 185.414C110.434 184.171 111.173 183.433 112.273 183.433C113.389 183.433 114.035 184.15 114.028 185.364V191.636H117.501V184.683C117.508 182.211 116.002 180.585 113.708 180.585C112.075 180.585 110.924 181.387 110.434 182.729H110.313V177.09H106.954V191.636H110.427V185.414ZM124.768 191.842C127.63 191.842 129.512 190.457 129.91 188.312L126.721 188.22C126.451 188.944 125.741 189.335 124.832 189.335C123.497 189.335 122.673 188.447 122.673 187.112V187.019H129.946V186.153C129.946 182.559 127.758 180.585 124.662 180.585C121.366 180.585 119.25 182.843 119.25 186.224C119.25 189.718 121.338 191.842 124.768 191.842ZM122.673 185.002C122.723 183.916 123.582 183.092 124.733 183.092C125.876 183.092 126.7 183.887 126.714 185.002H122.673ZM142.217 180.727H140.136V180.116C140.136 179.491 140.391 179.107 141.201 179.107C141.528 179.107 141.925 179.178 142.181 179.256L142.735 176.714C142.323 176.6 141.379 176.408 140.42 176.408C138.197 176.408 136.67 177.644 136.67 180.173V180.727H135.2V183.283H136.67V191.636H140.136V183.283H142.217V180.727ZM150.926 186.927C150.926 188.198 150.116 188.908 149.086 188.908C148.021 188.908 147.368 188.184 147.36 186.998V180.727H143.887V187.68C143.895 190.144 145.393 191.778 147.637 191.778C149.271 191.778 150.485 190.94 150.968 189.604H151.082V191.636H154.392V180.727H150.926V186.927ZM162.76 180.727H160.793V178.113H157.32V180.727H155.878V183.283H157.32V188.589C157.298 190.798 158.733 191.906 161.183 191.792C162.021 191.749 162.625 191.579 162.959 191.479L162.433 188.972C162.284 189.008 161.936 189.079 161.673 189.079C161.112 189.079 160.793 188.852 160.793 188.205V183.283H162.76V180.727ZM171.57 186.927C171.57 188.198 170.761 188.908 169.731 188.908C168.666 188.908 168.012 188.184 168.005 186.998V180.727H164.532V187.68C164.539 190.144 166.038 191.778 168.282 191.778C169.916 191.778 171.13 190.94 171.613 189.604H171.727V191.636H175.036V180.727H171.57V186.927ZM177.247 191.636H180.72V185.712C180.72 184.413 181.643 183.539 182.886 183.539C183.298 183.539 183.916 183.61 184.25 183.724V180.705C183.958 180.627 183.596 180.578 183.277 180.578C182.083 180.578 181.132 181.274 180.734 182.715H180.62V180.727H177.247V191.636ZM190.198 191.842C193.06 191.842 194.942 190.457 195.34 188.312L192.151 188.22C191.881 188.944 191.171 189.335 190.262 189.335C188.927 189.335 188.103 188.447 188.103 187.112V187.019H195.375V186.153C195.375 182.559 193.188 180.585 190.091 180.585C186.796 180.585 184.679 182.843 184.679 186.224C184.679 189.718 186.767 191.842 190.198 191.842ZM188.103 185.002C188.152 183.916 189.012 183.092 190.162 183.092C191.306 183.092 192.13 183.887 192.144 185.002H188.103ZM206.538 191.842C209.969 191.842 212.05 189.576 212.05 186.217C212.05 182.85 209.969 180.585 206.538 180.585C203.108 180.585 201.027 182.85 201.027 186.217C201.027 189.576 203.108 191.842 206.538 191.842ZM206.56 189.221C205.274 189.221 204.564 187.999 204.564 186.195C204.564 184.384 205.274 183.156 206.56 183.156C207.803 183.156 208.513 184.384 208.513 186.195C208.513 187.999 207.803 189.221 206.56 189.221ZM220.029 180.727H217.948V180.116C217.948 179.491 218.204 179.107 219.014 179.107C219.34 179.107 219.738 179.178 219.994 179.256L220.548 176.714C220.136 176.6 219.191 176.408 218.232 176.408C216.009 176.408 214.482 177.644 214.482 180.173V180.727H213.012V183.283H214.482V191.636H217.948V183.283H220.029V180.727ZM239.2 182.36C238.845 178.88 236.253 176.891 232.737 176.891C228.859 176.891 225.841 179.555 225.841 184.363C225.841 189.15 228.788 191.835 232.737 191.835C236.728 191.835 238.937 189.122 239.2 186.543L235.649 186.522C235.4 187.921 234.349 188.752 232.808 188.752C230.734 188.752 229.427 187.254 229.427 184.363C229.427 181.586 230.706 179.974 232.829 179.974C234.427 179.974 235.471 180.904 235.649 182.36H239.2ZM246.304 191.842C249.734 191.842 251.815 189.576 251.815 186.217C251.815 182.85 249.734 180.585 246.304 180.585C242.874 180.585 240.793 182.85 240.793 186.217C240.793 189.576 242.874 191.842 246.304 191.842ZM246.325 189.221C245.04 189.221 244.33 187.999 244.33 186.195C244.33 184.384 245.04 183.156 246.325 183.156C247.568 183.156 248.278 184.384 248.278 186.195C248.278 187.999 247.568 189.221 246.325 189.221ZM253.595 191.636H257.068V185.18C257.068 184.1 257.7 183.411 258.609 183.411C259.511 183.411 260.107 184.043 260.107 185.052V191.636H263.445V185.123C263.445 184.079 264.021 183.411 264.979 183.411C265.86 183.411 266.485 184.001 266.485 185.087V191.636H269.958V184.292C269.958 181.984 268.538 180.585 266.478 180.585C264.866 180.585 263.595 181.43 263.19 182.729H263.076C262.785 181.423 261.613 180.585 260.1 180.585C258.609 180.585 257.472 181.401 257.018 182.729H256.897V180.727H253.595V191.636ZM272.11 191.636H275.583V185.18C275.583 184.1 276.215 183.411 277.124 183.411C278.026 183.411 278.623 184.043 278.623 185.052V191.636H281.961V185.123C281.961 184.079 282.536 183.411 283.495 183.411C284.376 183.411 285.001 184.001 285.001 185.087V191.636H288.474V184.292C288.474 181.984 287.053 180.585 284.994 180.585C283.381 180.585 282.11 181.43 281.705 182.729H281.592C281.3 181.423 280.129 180.585 278.616 180.585C277.124 180.585 275.988 181.401 275.533 182.729H275.413V180.727H272.11V191.636ZM295.725 191.842C298.587 191.842 300.47 190.457 300.867 188.312L297.678 188.22C297.408 188.944 296.698 189.335 295.789 189.335C294.454 189.335 293.63 188.447 293.63 187.112V187.019H300.903V186.153C300.903 182.559 298.715 180.585 295.619 180.585C292.323 180.585 290.207 182.843 290.207 186.224C290.207 189.718 292.295 191.842 295.725 191.842ZM293.63 185.002C293.68 183.916 294.539 183.092 295.69 183.092C296.833 183.092 297.657 183.887 297.671 185.002H293.63ZM302.677 191.636H306.15V185.712C306.15 184.413 307.073 183.539 308.316 183.539C308.728 183.539 309.346 183.61 309.679 183.724V180.705C309.388 180.627 309.026 180.578 308.706 180.578C307.513 180.578 306.561 181.274 306.164 182.715H306.05V180.727H302.677V191.636ZM315.62 191.842C318.689 191.842 320.592 190.059 320.684 187.36H317.439C317.311 188.518 316.615 189.15 315.663 189.15C314.441 189.15 313.646 188.12 313.646 186.181C313.646 184.256 314.449 183.227 315.663 183.227C316.657 183.227 317.304 183.901 317.439 185.016H320.684C320.606 182.332 318.646 180.585 315.613 180.585C312.183 180.585 310.109 182.872 310.109 186.217C310.109 189.548 312.169 191.842 315.62 191.842ZM327.561 191.842C330.423 191.842 332.305 190.457 332.703 188.312L329.514 188.22C329.244 188.944 328.534 189.335 327.625 189.335C326.29 189.335 325.466 188.447 325.466 187.112V187.019H332.739V186.153C332.739 182.559 330.551 180.585 327.455 180.585C324.159 180.585 322.043 182.843 322.043 186.224C322.043 189.718 324.131 191.842 327.561 191.842ZM325.466 185.002C325.516 183.916 326.375 183.092 327.526 183.092C328.669 183.092 329.493 183.887 329.507 185.002H325.466ZM337.247 187.183H340.272V186.891C340.272 185.634 340.791 185.031 341.863 184.391C343.227 183.589 344.129 182.559 344.129 180.862C344.129 178.283 342.005 176.891 339.079 176.891C336.409 176.891 334.207 178.22 334.164 181.203H337.432C337.453 180.215 338.206 179.619 339.051 179.619C339.889 179.619 340.557 180.18 340.557 181.025C340.557 181.891 339.882 182.445 338.994 183.014C337.865 183.738 337.254 184.484 337.247 186.891V187.183ZM338.816 191.842C339.789 191.842 340.649 191.018 340.663 189.995C340.649 188.987 339.789 188.17 338.816 188.17C337.794 188.17 336.956 188.987 336.97 189.995C336.956 191.018 337.794 191.842 338.816 191.842ZM100.4 207.021H93.6673V209.698H100.4V207.021ZM114.962 201.09H111.446V215.636H114.962V201.09ZM123.326 204.727H121.359V202.113H117.886V204.727H116.444V207.283H117.886V212.589C117.865 214.798 119.299 215.906 121.75 215.792C122.588 215.749 123.191 215.579 123.525 215.479L123 212.972C122.851 213.008 122.503 213.079 122.24 213.079C121.679 213.079 121.359 212.852 121.359 212.205V207.283H123.326V204.727ZM129.395 215.636H132.911V211.119H135.297C138.628 211.119 140.709 209.144 140.709 206.126C140.709 203.136 138.671 201.09 135.404 201.09H129.395V215.636ZM132.911 208.349V203.924H134.644C136.221 203.924 137.066 204.776 137.066 206.126C137.066 207.468 136.221 208.349 134.644 208.349H132.911ZM142.414 215.636H153.181V212.802H147.286V212.71L149.026 211.104C152.179 208.356 153.003 206.957 153.003 205.288C153.003 202.667 150.865 200.891 147.563 200.891C144.346 200.891 142.194 202.745 142.201 205.707H145.532C145.532 204.393 146.341 203.633 147.549 203.633C148.735 203.633 149.594 204.364 149.594 205.565C149.594 206.651 148.912 207.39 147.719 208.462L142.414 213.107V215.636ZM155.196 215.636H158.712V211.119H161.098C164.429 211.119 166.51 209.144 166.51 206.126C166.51 203.136 164.472 201.09 161.205 201.09H155.196V215.636ZM158.712 208.349V203.924H160.445C162.021 203.924 162.867 204.776 162.867 206.126C162.867 207.468 162.021 208.349 160.445 208.349H158.712ZM172.327 201.09H168.754L169.081 211.183H172L172.327 201.09ZM170.544 215.842C171.517 215.842 172.376 215.018 172.391 213.995C172.376 212.987 171.517 212.17 170.544 212.17C169.521 212.17 168.683 212.987 168.697 213.995C168.683 215.018 169.521 215.842 170.544 215.842Z" fill="white"/>
</svg>
