<svg width="627" height="632" viewBox="0 0 627 632" fill="none" xmlns="http://www.w3.org/2000/svg">
<path d="M246.076 249.003C178.184 317.704 124.282 387.361 92.0153 444.44C75.8809 472.981 65.1633 498.364 60.8052 518.902C56.4442 539.454 58.4653 555.079 67.6926 564.197C76.9199 573.316 92.5673 575.152 113.066 570.547C133.551 565.946 158.805 554.928 187.153 538.457C243.845 505.516 312.859 450.792 380.75 382.091C448.642 313.391 502.544 243.733 534.811 186.655C550.945 158.114 561.663 132.731 566.021 112.192C570.382 91.6408 568.361 76.0162 559.133 66.8976C549.906 57.779 534.259 55.9433 513.76 60.5475C493.275 65.1487 468.021 76.1664 439.673 92.6378C382.981 125.579 313.967 180.303 246.076 249.003Z" fill="url(#paint0_radial_627_3161)" stroke="url(#paint1_radial_627_3161)" stroke-width="0.5" stroke-linejoin="round"/>
<path d="M380.571 249.179C448.451 317.869 502.338 387.509 534.591 444.563C550.72 473.094 561.424 498.451 565.774 518.954C570.131 539.484 568.089 554.994 558.956 564.019C549.823 573.044 534.29 574.903 513.813 570.303C493.363 565.71 468.134 554.706 439.797 538.241C383.129 505.314 314.132 450.605 246.252 381.916C178.371 313.226 124.485 243.586 92.2313 186.532C76.1029 158.001 65.3987 132.643 61.0481 112.14C56.6918 91.6109 58.734 76.1005 67.8667 67.0754C76.9994 58.0503 92.5328 56.1921 113.009 60.7914C133.459 65.3847 158.688 76.3886 187.026 92.854C243.694 125.781 312.69 180.489 380.571 249.179Z" stroke="url(#paint2_radial_627_3161)"/>
<g filter="url(#filter0_f_627_3161)">
<path d="M380.749 249.003C448.64 317.704 502.542 387.361 534.809 444.44C550.943 472.981 561.661 498.364 566.019 518.902C570.38 539.454 568.359 555.079 559.132 564.197C549.904 573.316 534.257 575.152 513.758 570.547C493.273 565.946 468.019 554.928 439.671 538.457C382.979 505.516 313.965 450.792 246.074 382.091C178.183 313.391 124.281 243.733 92.0137 186.655C75.8793 158.114 65.1616 132.731 60.8035 112.192C56.4426 91.6408 58.4636 76.0162 67.6909 66.8976C76.9182 57.779 92.5657 55.9433 113.064 60.5475C133.549 65.1487 158.804 76.1664 187.151 92.6378C243.844 125.579 312.857 180.303 380.749 249.003Z" stroke="url(#paint3_radial_627_3161)" stroke-width="0.5" stroke-linejoin="round"/>
</g>
<g filter="url(#filter1_f_627_3161)">
<circle cx="313.5" cy="186.5" r="97.5" fill="white"/>
</g>
<defs>
<filter id="filter0_f_627_3161" x="54.3516" y="53.8661" width="518.121" height="523.363" filterUnits="userSpaceOnUse" color-interpolation-filters="sRGB">
<feFlood flood-opacity="0" result="BackgroundImageFix"/>
<feBlend mode="normal" in="SourceGraphic" in2="BackgroundImageFix" result="shape"/>
<feGaussianBlur stdDeviation="2" result="effect1_foregroundBlur_627_3161"/>
</filter>
<filter id="filter1_f_627_3161" x="186" y="59" width="255" height="255" filterUnits="userSpaceOnUse" color-interpolation-filters="sRGB">
<feFlood flood-opacity="0" result="BackgroundImageFix"/>
<feBlend mode="normal" in="SourceGraphic" in2="BackgroundImageFix" result="shape"/>
<feGaussianBlur stdDeviation="15" result="effect1_foregroundBlur_627_3161"/>
</filter>
<radialGradient id="paint0_radial_627_3161" cx="0" cy="0" r="1" gradientUnits="userSpaceOnUse" gradientTransform="translate(313.413 315.547) rotate(134.66) scale(349.829 94.9202)">
<stop offset="0.822536" stop-color="#FFAC30" stop-opacity="0"/>
<stop offset="1" stop-color="#FD76CB"/>
</radialGradient>
<radialGradient id="paint1_radial_627_3161" cx="0" cy="0" r="1" gradientUnits="userSpaceOnUse" gradientTransform="translate(627.002 -17.5) rotate(142.172) scale(591.883 90.2223)">
<stop offset="0.34855" stop-color="#FFAC30"/>
<stop offset="1" stop-color="#FD76CB" stop-opacity="0.02"/>
</radialGradient>
<radialGradient id="paint2_radial_627_3161" cx="0" cy="0" r="1" gradientUnits="userSpaceOnUse" gradientTransform="translate(-0.177522 -17.5) rotate(37.8283) scale(591.883 90.2223)">
<stop offset="0.291255" stop-color="#FD76CB"/>
<stop offset="1" stop-color="white" stop-opacity="0.14"/>
</radialGradient>
<radialGradient id="paint3_radial_627_3161" cx="0" cy="0" r="1" gradientUnits="userSpaceOnUse" gradientTransform="translate(-0.177508 -17.4999) rotate(42.9828) scale(857.317 312.484)">
<stop offset="0.668837" stop-color="white" stop-opacity="0"/>
<stop offset="1" stop-color="white"/>
</radialGradient>
</defs>
</svg>
