<svg width="99" height="36" viewBox="0 0 99 36" fill="none" xmlns="http://www.w3.org/2000/svg">
<g style="mix-blend-mode:difference">
<path fill-rule="evenodd" clip-rule="evenodd" d="M31.0713 20.9514C31.3513 19.8474 31.5 18.6911 31.5 17.5C31.5 9.76801 25.232 3.5 17.5 3.5C13.7057 3.5 10.264 5.00939 7.74254 7.46047C11.2918 8.54747 15.6054 10.4572 20.044 13.0199C24.5165 15.602 28.3515 18.4058 31.0713 20.9514ZM26.5187 28.2085C24.0826 30.2623 20.9358 31.5 17.5 31.5C9.76801 31.5 3.5 25.232 3.5 17.5C3.5 16.668 3.57257 15.853 3.71174 15.0609C6.41072 17.5329 10.1309 20.2292 14.444 22.7193C18.7885 25.2276 23.0133 27.1104 26.5187 28.2085Z" fill="white"/>
</g>
<g clip-path="url(#clip0_398_2323)">
<path d="M62.3296 28.5241C61.9161 28.5241 61.4828 28.5044 61.0299 28.465C60.5967 28.4453 60.1733 28.3271 59.7598 28.1105C59.3659 27.8939 59.0312 27.5099 58.7555 26.9585C58.4995 26.4268 58.3419 25.6588 58.2828 24.6545C56.0379 24.3591 54.3247 23.4533 53.1432 21.937C51.9813 20.4207 51.4004 18.4711 51.4004 16.0884C51.4004 14.3554 51.7155 12.8391 52.3456 11.5394C52.9758 10.2397 53.921 9.23544 55.1813 8.52652C56.4613 7.7979 58.0465 7.43359 59.937 7.43359C61.7881 7.43359 63.3438 7.7979 64.6041 8.52652C65.8644 9.23544 66.8096 10.2397 67.4398 11.5394C68.0896 12.8194 68.4145 14.3357 68.4145 16.0884C68.4145 18.2939 67.8828 20.1548 66.8195 21.6711C65.7758 23.1677 64.2299 24.1327 62.1819 24.5659C62.1819 24.9991 62.2607 25.2453 62.4182 25.3044C62.5955 25.3831 62.9992 25.4225 63.6293 25.4225C63.5505 25.4225 63.6785 25.4127 64.0133 25.393C64.3678 25.393 64.7321 25.393 65.1062 25.393L65.0472 28.4945C64.9881 28.4945 64.801 28.4945 64.4859 28.4945C64.1905 28.4945 63.8656 28.4945 63.5112 28.4945C63.1567 28.5142 62.8515 28.5241 62.5955 28.5241C62.3592 28.5241 62.2705 28.5241 62.3296 28.5241ZM59.8779 20.6964C61.3352 20.6964 62.4182 20.2631 63.1272 19.3967C63.8361 18.5302 64.1905 17.3782 64.1905 15.9407C64.1905 14.5031 63.8361 13.3511 63.1272 12.4847C62.4182 11.5985 61.3352 11.1554 59.8779 11.1554C58.4798 11.1554 57.4164 11.5788 56.6878 12.4256C55.9592 13.2527 55.5948 14.4244 55.5948 15.9407C55.5948 17.3782 55.9493 18.5302 56.6582 19.3967C57.3672 20.2631 58.4404 20.6964 59.8779 20.6964ZM75.4962 24.6545C74.61 24.6545 73.8913 24.497 73.3399 24.1819C72.8082 23.8668 72.3946 23.4631 72.0993 22.9708C71.8236 22.4588 71.6365 21.9173 71.538 21.3462C71.4396 20.7554 71.3805 20.1942 71.3608 19.6625C71.3608 19.1111 71.3608 18.6484 71.3608 18.2742V12.1302H75.378V18.3037C75.378 18.7173 75.4076 19.1407 75.4666 19.5739C75.5454 19.9874 75.7226 20.3419 75.9983 20.6373C76.2937 20.913 76.7663 21.0508 77.4162 21.0508C78.066 21.0508 78.5288 20.913 78.8045 20.6373C79.0802 20.3419 79.2476 19.9874 79.3066 19.5739C79.3657 19.1407 79.3953 18.7173 79.3953 18.3037V12.1302H83.6488V24.3591H80.0746L79.3953 22.4096H79.3362C79.3362 22.4096 79.2771 22.5277 79.1589 22.7641C79.0605 22.9807 78.8734 23.2367 78.5977 23.5321C78.322 23.8274 77.9282 24.0933 77.4162 24.3296C76.9239 24.5462 76.2839 24.6545 75.4962 24.6545ZM90.8439 24.6545C89.1701 24.6545 88.0082 24.1031 87.3584 23.0004C86.7282 21.8779 86.4131 20.3616 86.4131 18.4514C86.4131 17.1714 86.551 16.0588 86.8267 15.1136C87.1024 14.1684 87.5651 13.4397 88.215 12.9277C88.8648 12.3961 89.7411 12.1302 90.8439 12.1302C91.6513 12.1302 92.3012 12.2484 92.7935 12.4847C93.3055 12.7013 93.6993 12.9573 93.975 13.2527C94.2507 13.5481 94.4378 13.8139 94.5363 14.0502C94.6347 14.2668 94.684 14.3751 94.684 14.3751H94.743V12.1302H98.9966V24.3591H95.3929L94.743 22.705H94.684C94.7036 22.705 94.6544 22.8034 94.5363 23.0004C94.4181 23.1973 94.2113 23.4237 93.916 23.6797C93.6403 23.9357 93.2464 24.1622 92.7344 24.3591C92.2421 24.5561 91.6119 24.6545 90.8439 24.6545ZM92.5867 21.2576C93.2563 21.2576 93.7387 21.1296 94.0341 20.8736C94.3492 20.5979 94.5461 20.2434 94.6249 19.8102C94.7036 19.377 94.743 18.9339 94.743 18.481C94.743 18.0084 94.7036 17.5653 94.6249 17.1517C94.5461 16.7185 94.3492 16.3739 94.0341 16.1179C93.7387 15.8619 93.2563 15.7339 92.5867 15.7339C91.9171 15.7339 91.4248 15.8717 91.1098 16.1474C90.8144 16.4034 90.6273 16.7382 90.5485 17.1517C90.4698 17.5653 90.4304 18.0084 90.4304 18.481C90.4304 18.9536 90.4698 19.4065 90.5485 19.8397C90.6273 20.2533 90.8144 20.5979 91.1098 20.8736C91.4248 21.1296 91.9171 21.2576 92.5867 21.2576Z" fill="black"/>
</g>
<defs>
<clipPath id="clip0_398_2323">
<rect width="48" height="21.7436" fill="white" transform="translate(51 7.12842)"/>
</clipPath>
</defs>
</svg>
