<svg width="150" height="150" viewBox="0 0 150 150" fill="none" xmlns="http://www.w3.org/2000/svg">
<g style="mix-blend-mode:difference">
<path fill-rule="evenodd" clip-rule="evenodd" d="M123.469 87.6992C124.469 83.756 125 79.6259 125 75.3718C125 47.7576 102.614 25.3718 75 25.3718C61.4487 25.3718 49.1564 30.7628 40.151 39.5172C52.827 43.3993 68.2335 50.22 84.0862 59.3726C100.059 68.5945 113.755 78.6078 123.469 87.6992ZM107.209 113.617C98.5084 120.952 87.2703 125.372 75 125.372C47.3858 125.372 25 102.986 25 75.3718C25 72.4007 25.2591 69.4901 25.7561 66.6614C35.3953 75.4904 48.682 85.12 64.0862 94.0136C79.6017 102.971 94.6897 109.696 107.209 113.617Z" fill="white"/>
</g>
</svg>
