<svg width="132" height="63" viewBox="0 0 132 63" fill="none" xmlns="http://www.w3.org/2000/svg">
<path d="M31.9001 62.1262C30.6961 62.1262 29.4348 62.0689 28.1161 61.9542C26.8548 61.8969 25.6221 61.5529 24.4181 60.9222C23.2714 60.2915 22.2968 59.1735 21.4941 57.5682C20.7488 56.0202 20.2901 53.7842 20.1181 50.8602C13.5821 50.0002 8.59408 47.3629 5.15408 42.9482C1.77141 38.5335 0.0800781 32.8575 0.0800781 25.9202C0.0800781 20.8749 0.997411 16.4602 2.83208 12.6762C4.66675 8.89217 7.41875 5.96817 11.0881 3.90417C14.8148 1.78284 19.4301 0.722168 24.9341 0.722168C30.3234 0.722168 34.8528 1.78284 38.5221 3.90417C42.1914 5.96817 44.9434 8.89217 46.7781 12.6762C48.6701 16.4029 49.6161 20.8175 49.6161 25.9202C49.6161 32.3415 48.0681 37.7595 44.9721 42.1742C41.9334 46.5315 37.4328 49.3409 31.4701 50.6022C31.4701 51.8635 31.6994 52.5802 32.1581 52.7522C32.6741 52.9815 33.8494 53.0962 35.6841 53.0962C35.4548 53.0962 35.8274 53.0675 36.8021 53.0102C37.8341 53.0102 38.8948 53.0102 39.9841 53.0102L39.8121 62.0402C39.6401 62.0402 39.0954 62.0402 38.1781 62.0402C37.3181 62.0402 36.3721 62.0402 35.3401 62.0402C34.3081 62.0975 33.4194 62.1262 32.6741 62.1262C31.9861 62.1262 31.7281 62.1262 31.9001 62.1262ZM24.7621 39.3362C29.0048 39.3362 32.1581 38.0749 34.2221 35.5522C36.2861 33.0295 37.3181 29.6755 37.3181 25.4902C37.3181 21.3049 36.2861 17.9509 34.2221 15.4282C32.1581 12.8482 29.0048 11.5582 24.7621 11.5582C20.6914 11.5582 17.5954 12.7909 15.4741 15.2562C13.3528 17.6642 12.2921 21.0755 12.2921 25.4902C12.2921 29.6755 13.3241 33.0295 15.3881 35.5522C17.4521 38.0749 20.5768 39.3362 24.7621 39.3362ZM66.7939 50.8602C64.2139 50.8602 62.1213 50.4015 60.5159 49.4842C58.9679 48.5669 57.7639 47.3915 56.9039 45.9582C56.1013 44.4675 55.5566 42.8909 55.2699 41.2282C54.9833 39.5082 54.8113 37.8742 54.7539 36.3262C54.7539 34.7209 54.7539 33.3735 54.7539 32.2842V14.3962H66.4499V32.3702C66.4499 33.5742 66.5359 34.8069 66.7079 36.0682C66.9373 37.2722 67.4533 38.3042 68.2559 39.1642C69.1159 39.9669 70.4919 40.3682 72.3839 40.3682C74.2759 40.3682 75.6233 39.9669 76.4259 39.1642C77.2286 38.3042 77.7159 37.2722 77.8879 36.0682C78.0599 34.8069 78.1459 33.5742 78.1459 32.3702V14.3962H90.5299V50.0002H80.1239L78.1459 44.3242H77.9739C77.9739 44.3242 77.8019 44.6682 77.4579 45.3562C77.1713 45.9869 76.6266 46.7322 75.8239 47.5922C75.0213 48.4522 73.8746 49.2262 72.3839 49.9142C70.9506 50.5449 69.0873 50.8602 66.7939 50.8602ZM108.038 50.8602C103.165 50.8602 99.7823 49.2549 97.8903 46.0442C96.0557 42.7762 95.1383 38.3615 95.1383 32.8002C95.1383 29.0735 95.5397 25.8342 96.3423 23.0822C97.145 20.3302 98.4923 18.2089 100.384 16.7182C102.276 15.1702 104.828 14.3962 108.038 14.3962C110.389 14.3962 112.281 14.7402 113.714 15.4282C115.205 16.0589 116.352 16.8042 117.154 17.6642C117.957 18.5242 118.502 19.2982 118.788 19.9862C119.075 20.6169 119.218 20.9322 119.218 20.9322H119.39V14.3962H131.774V50.0002H121.282L119.39 45.1842H119.218C119.276 45.1842 119.132 45.4709 118.788 46.0442C118.444 46.6175 117.842 47.2769 116.982 48.0222C116.18 48.7675 115.033 49.4269 113.542 50.0002C112.109 50.5735 110.274 50.8602 108.038 50.8602ZM113.112 40.9702C115.062 40.9702 116.466 40.5975 117.326 39.8522C118.244 39.0495 118.817 38.0175 119.046 36.7562C119.276 35.4949 119.39 34.2049 119.39 32.8862C119.39 31.5102 119.276 30.2202 119.046 29.0162C118.817 27.7549 118.244 26.7515 117.326 26.0062C116.466 25.2609 115.062 24.8882 113.112 24.8882C111.163 24.8882 109.73 25.2895 108.812 26.0922C107.952 26.8375 107.408 27.8122 107.178 29.0162C106.949 30.2202 106.834 31.5102 106.834 32.8862C106.834 34.2622 106.949 35.5809 107.178 36.8422C107.408 38.0462 107.952 39.0495 108.812 39.8522C109.73 40.5975 111.163 40.9702 113.112 40.9702Z" fill="white"/>
</svg>
