<svg width="60" height="60" viewBox="0 0 60 60" fill="none" xmlns="http://www.w3.org/2000/svg">
<g clip-path="url(#clip0_240_973)">
<path d="M22.55 52.5H6.25C2.805 52.5 0 49.6975 0 46.25V6.25C0 2.8025 2.805 0 6.25 0H36.25C39.695 0 42.5 2.8025 42.5 6.25V21.4C42.5 22.09 41.94 22.65 41.25 22.65C40.56 22.65 40 22.09 40 21.4V6.25C40 4.1825 38.3175 2.5 36.25 2.5H6.25C4.1825 2.5 2.5 4.1825 2.5 6.25V46.25C2.5 48.3175 4.1825 50 6.25 50H22.55C23.24 50 23.8 50.56 23.8 51.25C23.8 51.94 23.24 52.5 22.55 52.5Z" fill="black"/>
<path d="M33.75 22.5H8.75C8.06 22.5 7.5 21.94 7.5 21.25C7.5 20.56 8.06 20 8.75 20H33.75C34.44 20 35 20.56 35 21.25C35 21.94 34.44 22.5 33.75 22.5Z" fill="black"/>
<path d="M23.75 32.5H8.75C8.06 32.5 7.5 31.94 7.5 31.25C7.5 30.56 8.06 30 8.75 30H23.75C24.44 30 25 30.56 25 31.25C25 31.94 24.44 32.5 23.75 32.5Z" fill="black"/>
<path d="M21.25 12.5H8.75C8.06 12.5 7.5 11.94 7.5 11.25C7.5 10.56 8.06 10 8.75 10H21.25C21.94 10 22.5 10.56 22.5 11.25C22.5 11.94 21.94 12.5 21.25 12.5Z" fill="black"/>
<path d="M43.75 60C34.79 60 27.5 52.71 27.5 43.75C27.5 34.79 34.79 27.5 43.75 27.5C52.71 27.5 60 34.79 60 43.75C60 52.71 52.71 60 43.75 60ZM43.75 30C36.1675 30 30 36.17 30 43.75C30 51.33 36.1675 57.5 43.75 57.5C51.3325 57.5 57.5 51.33 57.5 43.75C57.5 36.17 51.3325 30 43.75 30Z" fill="black"/>
<path d="M43.75 52.5C43.06 52.5 42.5 51.94 42.5 51.25V36.25C42.5 35.56 43.06 35 43.75 35C44.44 35 45 35.56 45 36.25V51.25C45 51.94 44.44 52.5 43.75 52.5Z" fill="black"/>
<path d="M51.25 45H36.25C35.56 45 35 44.44 35 43.75C35 43.06 35.56 42.5 36.25 42.5H51.25C51.94 42.5 52.5 43.06 52.5 43.75C52.5 44.44 51.94 45 51.25 45Z" fill="black"/>
</g>
<defs>
<clipPath id="clip0_240_973">
<rect width="60" height="60" fill="white"/>
</clipPath>
</defs>
</svg>
