<svg width="61" height="60" viewBox="0 0 61 60" fill="none" xmlns="http://www.w3.org/2000/svg">
<path fill-rule="evenodd" clip-rule="evenodd" d="M41.7844 53.7507H20.9149C13.2489 53.7507 7.36794 50.9818 9.03842 39.8377L10.9835 24.7347C12.0132 19.174 15.5602 17.0459 18.6723 17.0459H44.1185C47.2764 17.0459 50.6174 19.3342 51.8073 24.7347L53.7524 39.8377C55.1711 49.7232 49.4503 53.7507 41.7844 53.7507Z" stroke="black" stroke-width="2.4" stroke-linecap="round" stroke-linejoin="round"/>
<path d="M42.1276 16.4963C42.1276 10.5311 37.2918 5.69541 31.3267 5.69541V5.69541C28.4542 5.68324 25.6951 6.81581 23.6597 8.8427C21.6242 10.8696 20.48 13.6238 20.48 16.4963H20.48" stroke="black" stroke-width="2.4" stroke-linecap="round" stroke-linejoin="round"/>
<path d="M38.7409 27.7545H38.6265" stroke="black" stroke-width="2.4" stroke-linecap="round" stroke-linejoin="round"/>
<path d="M24.1643 27.7545H24.0498" stroke="black" stroke-width="2.4" stroke-linecap="round" stroke-linejoin="round"/>
</svg>
