<svg width="784" height="394" viewBox="0 0 784 394" fill="none" xmlns="http://www.w3.org/2000/svg">
<rect x="1" y="1" width="782" height="392" fill="white"/>
<g clip-path="url(#clip0_757_3349)">
<path d="M216.296 170.79C201.817 170.79 190.079 182.528 190.079 197.006C190.079 211.486 201.817 223.222 216.296 223.222C230.776 223.222 242.512 211.486 242.512 197.006C242.512 182.528 230.776 170.791 216.295 170.791L216.296 170.79V170.79ZM228.318 208.601C227.849 209.371 226.841 209.616 226.071 209.143C219.915 205.383 212.166 204.532 203.041 206.617C202.161 206.817 201.285 206.266 201.084 205.386C200.883 204.506 201.432 203.63 202.313 203.43C212.3 201.148 220.866 202.13 227.777 206.354C228.547 206.826 228.791 207.831 228.318 208.601V208.601ZM231.527 201.463C230.935 202.425 229.677 202.728 228.716 202.137C221.669 197.805 210.927 196.551 202.592 199.081C201.511 199.407 200.369 198.798 200.041 197.719C199.715 196.638 200.325 195.499 201.404 195.17C210.925 192.281 222.762 193.68 230.854 198.653C231.815 199.245 232.119 200.503 231.527 201.463V201.463ZM231.803 194.03C223.353 189.011 209.413 188.55 201.345 190.998C200.05 191.391 198.68 190.66 198.288 189.364C197.895 188.068 198.626 186.699 199.922 186.305C209.183 183.494 224.577 184.037 234.305 189.812C235.473 190.504 235.855 192.009 235.163 193.172C234.474 194.337 232.965 194.722 231.804 194.03H231.803ZM261.406 194.991C256.879 193.912 256.074 193.154 256.074 191.562C256.074 190.059 257.489 189.046 259.596 189.046C261.637 189.046 263.66 189.815 265.782 191.397C265.845 191.445 265.926 191.464 266.004 191.452C266.086 191.44 266.155 191.396 266.202 191.331L268.412 188.215C268.503 188.087 268.478 187.91 268.355 187.812C265.829 185.786 262.986 184.8 259.662 184.8C254.775 184.8 251.359 187.733 251.359 191.93C251.359 196.43 254.305 198.024 259.396 199.254C263.725 200.251 264.458 201.087 264.458 202.581C264.458 204.237 262.98 205.267 260.601 205.267C257.959 205.267 255.802 204.375 253.391 202.29C253.332 202.237 253.25 202.215 253.175 202.218C253.094 202.224 253.022 202.262 252.972 202.321L250.492 205.27C250.389 205.396 250.402 205.577 250.52 205.684C253.325 208.188 256.775 209.509 260.501 209.509C265.766 209.509 269.169 206.632 269.169 202.177C269.179 198.418 266.928 196.337 261.415 194.995L261.406 194.991V194.991ZM281.084 190.527C278.802 190.527 276.93 191.426 275.384 193.269V191.195C275.384 191.031 275.252 190.898 275.089 190.898H271.035C270.872 190.898 270.741 191.031 270.741 191.195V214.236C270.741 214.399 270.872 214.534 271.035 214.534H275.089C275.252 214.534 275.384 214.399 275.384 214.236V206.964C276.93 208.695 278.802 209.544 281.084 209.544C285.326 209.544 289.622 206.278 289.622 200.036C289.628 193.793 285.333 190.527 281.088 190.527L281.084 190.527ZM284.907 200.036C284.907 203.214 282.95 205.433 280.145 205.433C277.375 205.433 275.283 203.113 275.283 200.036C275.283 196.959 277.375 194.64 280.145 194.64C282.903 194.639 284.907 196.909 284.907 200.036V200.036ZM300.626 190.527C295.163 190.527 290.883 194.733 290.883 200.104C290.883 205.417 295.135 209.578 300.56 209.578C306.042 209.578 310.334 205.386 310.334 200.036C310.334 194.705 306.07 190.528 300.626 190.528V190.527V190.527ZM300.626 205.464C297.72 205.464 295.529 203.129 295.529 200.035C295.529 196.926 297.645 194.671 300.56 194.671C303.484 194.671 305.688 197.005 305.688 200.103C305.688 203.21 303.559 205.464 300.626 205.464V205.464ZM321.998 190.898H317.537V186.338C317.537 186.174 317.406 186.041 317.243 186.041H313.189C313.026 186.041 312.891 186.174 312.891 186.338V190.898H310.944C310.781 190.898 310.65 191.031 310.65 191.195V194.678C310.65 194.842 310.781 194.975 310.944 194.975H312.891V203.99C312.891 207.631 314.704 209.478 318.282 209.478C319.735 209.478 320.94 209.177 322.076 208.532C322.17 208.482 322.227 208.382 322.227 208.276V204.957C322.227 204.857 322.173 204.76 322.086 204.707C321.998 204.65 321.889 204.647 321.798 204.694C321.018 205.086 320.264 205.267 319.419 205.267C318.119 205.267 317.537 204.676 317.537 203.354V194.977H321.998C322.161 194.977 322.292 194.844 322.292 194.68V191.197C322.299 191.033 322.167 190.9 322.001 190.9L321.998 190.898V190.898ZM337.538 190.916V190.356C337.538 188.708 338.171 187.973 339.586 187.973C340.431 187.973 341.11 188.141 341.871 188.395C341.965 188.424 342.062 188.409 342.137 188.353C342.215 188.297 342.259 188.207 342.259 188.112V184.697C342.259 184.566 342.178 184.451 342.05 184.412C341.248 184.173 340.221 183.928 338.681 183.928C334.94 183.928 332.958 186.036 332.958 190.023V190.88H331.011C330.848 190.88 330.714 191.014 330.714 191.177V194.678C330.714 194.842 330.848 194.975 331.011 194.975H332.958V208.877C332.958 209.043 333.093 209.174 333.256 209.174H337.307C337.473 209.174 337.604 209.043 337.604 208.877V194.976H341.389L347.187 208.877C346.529 210.336 345.881 210.627 344.999 210.627C344.285 210.627 343.53 210.414 342.763 209.991C342.691 209.954 342.604 209.947 342.529 209.969C342.45 209.998 342.385 210.054 342.353 210.129L340.979 213.144C340.913 213.288 340.97 213.454 341.107 213.529C342.541 214.305 343.834 214.637 345.434 214.637C348.427 214.637 350.083 213.241 351.538 209.49L358.57 191.321C358.607 191.23 358.595 191.127 358.538 191.046C358.485 190.965 358.394 190.917 358.297 190.917H354.077C353.949 190.917 353.836 190.997 353.796 191.116L349.472 203.461L344.739 191.108C344.695 190.993 344.585 190.917 344.463 190.917H337.538V190.916V190.916ZM328.529 190.898H324.474C324.312 190.898 324.177 191.031 324.177 191.195V208.877C324.177 209.043 324.312 209.174 324.474 209.174H328.529C328.691 209.174 328.826 209.043 328.826 208.877V191.196C328.826 191.032 328.694 190.899 328.529 190.899V190.898ZM326.525 182.846C324.919 182.846 323.617 184.146 323.617 185.752C323.617 187.358 324.919 188.66 326.525 188.66C328.131 188.66 329.43 187.358 329.43 185.752C329.43 184.146 328.128 182.846 326.525 182.846ZM362.032 196.583C360.429 196.583 359.18 195.295 359.18 193.731C359.18 192.166 360.445 190.863 362.048 190.863C363.651 190.863 364.9 192.151 364.9 193.714C364.9 195.279 363.635 196.583 362.032 196.583ZM362.048 191.147C360.586 191.147 359.481 192.308 359.481 193.731C359.481 195.152 360.58 196.298 362.032 196.298C363.494 196.298 364.599 195.138 364.599 193.714C364.599 192.293 363.5 191.147 362.048 191.147V191.147ZM362.68 194.008L363.488 195.137H362.805L362.079 194.101H361.456V195.137H360.886V192.143H362.22C362.918 192.143 363.375 192.499 363.375 193.098C363.378 193.589 363.093 193.889 362.683 194.008H362.68ZM362.198 192.657H361.456V193.604H362.198C362.567 193.604 362.79 193.423 362.79 193.13C362.79 192.822 362.567 192.657 362.198 192.657V192.657Z" fill="#1ED760"/>
</g>
<line x1="405.5" y1="157.5" x2="405.5" y2="236.5" stroke="black" stroke-linecap="round" stroke-linejoin="round"/>
<g style="mix-blend-mode:difference">
<path fill-rule="evenodd" clip-rule="evenodd" d="M499.388 200.93C499.788 199.353 500 197.701 500 196C500 184.954 491.046 176 480 176C474.58 176 469.663 178.156 466.061 181.657C471.132 183.21 477.294 185.938 483.635 189.599C490.024 193.288 495.502 197.293 499.388 200.93ZM492.884 211.297C489.404 214.232 484.909 216 480 216C468.954 216 460 207.046 460 196C460 194.811 460.104 193.647 460.303 192.515C464.158 196.046 469.473 199.898 475.635 203.456C481.841 207.039 487.877 209.729 492.884 211.297Z" fill="white"/>
</g>
<g style="mix-blend-mode:difference" clip-path="url(#clip1_757_3349)">
<path d="M531.8 210.421C531.253 210.421 530.679 210.395 530.08 210.342C529.506 210.316 528.946 210.16 528.399 209.873C527.878 209.587 527.435 209.079 527.07 208.349C526.731 207.645 526.523 206.629 526.444 205.3C523.473 204.909 521.206 203.71 519.643 201.703C518.105 199.697 517.336 197.117 517.336 193.963C517.336 191.67 517.753 189.663 518.587 187.943C519.421 186.223 520.672 184.894 522.34 183.956C524.034 182.992 526.132 182.51 528.633 182.51C531.083 182.51 533.142 182.992 534.81 183.956C536.478 184.894 537.729 186.223 538.563 187.943C539.423 189.637 539.853 191.644 539.853 193.963C539.853 196.882 539.149 199.345 537.742 201.352C536.36 203.332 534.315 204.609 531.604 205.182C531.604 205.756 531.709 206.082 531.917 206.16C532.152 206.264 532.686 206.316 533.52 206.316C533.416 206.316 533.585 206.303 534.028 206.277C534.497 206.277 534.979 206.277 535.474 206.277L535.396 210.382C535.318 210.382 535.07 210.382 534.653 210.382C534.263 210.382 533.833 210.382 533.363 210.382C532.894 210.408 532.49 210.421 532.152 210.421C531.839 210.421 531.722 210.421 531.8 210.421ZM528.555 200.062C530.484 200.062 531.917 199.488 532.855 198.342C533.793 197.195 534.263 195.67 534.263 193.768C534.263 191.866 533.793 190.341 532.855 189.194C531.917 188.022 530.484 187.435 528.555 187.435C526.705 187.435 525.298 187.996 524.333 189.116C523.369 190.211 522.887 191.761 522.887 193.768C522.887 195.67 523.356 197.195 524.294 198.342C525.233 199.488 526.653 200.062 528.555 200.062ZM547.661 205.3C546.488 205.3 545.537 205.091 544.807 204.674C544.103 204.257 543.556 203.723 543.165 203.072C542.8 202.394 542.553 201.677 542.422 200.922C542.292 200.14 542.214 199.397 542.188 198.693C542.188 197.964 542.188 197.351 542.188 196.856V188.725H547.504V196.895C547.504 197.442 547.543 198.003 547.622 198.576C547.726 199.123 547.96 199.592 548.325 199.983C548.716 200.348 549.342 200.531 550.202 200.531C551.062 200.531 551.674 200.348 552.039 199.983C552.404 199.592 552.625 199.123 552.703 198.576C552.782 198.003 552.821 197.442 552.821 196.895V188.725H558.45V204.909H553.72L552.821 202.329H552.742C552.742 202.329 552.664 202.485 552.508 202.798C552.378 203.085 552.13 203.423 551.765 203.814C551.4 204.205 550.879 204.557 550.202 204.87C549.55 205.156 548.703 205.3 547.661 205.3ZM566.408 205.3C564.193 205.3 562.655 204.57 561.795 203.111C560.961 201.625 560.544 199.619 560.544 197.091C560.544 195.397 560.727 193.924 561.092 192.673C561.457 191.422 562.069 190.458 562.929 189.781C563.789 189.077 564.949 188.725 566.408 188.725C567.477 188.725 568.337 188.882 568.988 189.194C569.666 189.481 570.187 189.82 570.552 190.211C570.917 190.602 571.164 190.953 571.294 191.266C571.425 191.553 571.49 191.696 571.49 191.696H571.568V188.725H577.197V204.909H572.428L571.568 202.72H571.49C571.516 202.72 571.451 202.85 571.294 203.111C571.138 203.371 570.864 203.671 570.473 204.01C570.109 204.349 569.588 204.648 568.91 204.909C568.258 205.169 567.424 205.3 566.408 205.3ZM568.714 200.804C569.601 200.804 570.239 200.635 570.63 200.296C571.047 199.931 571.308 199.462 571.412 198.889C571.516 198.316 571.568 197.729 571.568 197.13C571.568 196.504 571.516 195.918 571.412 195.371C571.308 194.797 571.047 194.341 570.63 194.002C570.239 193.664 569.601 193.494 568.714 193.494C567.828 193.494 567.177 193.677 566.76 194.042C566.369 194.38 566.122 194.823 566.017 195.371C565.913 195.918 565.861 196.504 565.861 197.13C565.861 197.755 565.913 198.355 566.017 198.928C566.122 199.475 566.369 199.931 566.76 200.296C567.177 200.635 567.828 200.804 568.714 200.804Z" fill="white"/>
</g>
<rect x="1" y="1" width="782" height="392" stroke="black" stroke-width="2"/>
<defs>
<clipPath id="clip0_757_3349">
<rect width="175" height="52.5939" fill="white" transform="translate(190 170.703)"/>
</clipPath>
<clipPath id="clip1_757_3349">
<rect width="60" height="28.6364" fill="white" transform="translate(517.3 182.182)"/>
</clipPath>
</defs>
</svg>
