<svg width="780" height="390" viewBox="0 0 780 390" fill="none" xmlns="http://www.w3.org/2000/svg">
<rect width="780" height="390" fill="#030306"/>
<g clip-path="url(#clip0_757_3331)">
<path d="M214.296 168.79C199.817 168.79 188.079 180.528 188.079 195.006C188.079 209.486 199.817 221.222 214.296 221.222C228.776 221.222 240.512 209.486 240.512 195.006C240.512 180.528 228.776 168.791 214.295 168.791L214.296 168.79V168.79ZM226.318 206.601C225.849 207.371 224.841 207.616 224.071 207.143C217.915 203.383 210.166 202.532 201.041 204.617C200.161 204.817 199.285 204.266 199.084 203.386C198.883 202.506 199.432 201.63 200.313 201.43C210.3 199.148 218.866 200.13 225.777 204.354C226.547 204.826 226.791 205.831 226.318 206.601V206.601ZM229.527 199.463C228.935 200.425 227.677 200.728 226.716 200.137C219.669 195.805 208.927 194.551 200.592 197.081C199.511 197.407 198.369 196.798 198.041 195.719C197.715 194.638 198.325 193.499 199.404 193.17C208.925 190.281 220.762 191.68 228.854 196.653C229.815 197.245 230.119 198.503 229.527 199.463V199.463ZM229.803 192.03C221.353 187.011 207.413 186.55 199.345 188.998C198.05 189.391 196.68 188.66 196.288 187.364C195.895 186.068 196.626 184.699 197.922 184.305C207.183 181.494 222.577 182.037 232.305 187.812C233.473 188.504 233.855 190.009 233.163 191.172C232.474 192.337 230.965 192.722 229.804 192.03H229.803ZM259.406 192.991C254.879 191.912 254.074 191.154 254.074 189.562C254.074 188.059 255.489 187.046 257.596 187.046C259.637 187.046 261.66 187.815 263.782 189.397C263.845 189.445 263.926 189.464 264.004 189.452C264.086 189.44 264.155 189.396 264.202 189.331L266.412 186.215C266.503 186.087 266.478 185.91 266.355 185.812C263.829 183.786 260.986 182.8 257.662 182.8C252.775 182.8 249.359 185.733 249.359 189.93C249.359 194.43 252.305 196.024 257.396 197.254C261.725 198.251 262.458 199.087 262.458 200.581C262.458 202.237 260.98 203.267 258.601 203.267C255.959 203.267 253.802 202.375 251.391 200.29C251.332 200.237 251.25 200.215 251.175 200.218C251.094 200.224 251.022 200.262 250.972 200.321L248.492 203.27C248.389 203.396 248.402 203.577 248.52 203.684C251.325 206.188 254.775 207.509 258.501 207.509C263.766 207.509 267.169 204.632 267.169 200.177C267.179 196.418 264.928 194.337 259.415 192.995L259.406 192.991V192.991ZM279.084 188.527C276.802 188.527 274.93 189.426 273.384 191.269V189.195C273.384 189.031 273.252 188.898 273.089 188.898H269.035C268.872 188.898 268.741 189.031 268.741 189.195V212.236C268.741 212.399 268.872 212.534 269.035 212.534H273.089C273.252 212.534 273.384 212.399 273.384 212.236V204.964C274.93 206.695 276.802 207.544 279.084 207.544C283.326 207.544 287.622 204.278 287.622 198.036C287.628 191.793 283.333 188.527 279.088 188.527L279.084 188.527ZM282.907 198.036C282.907 201.214 280.95 203.433 278.145 203.433C275.375 203.433 273.283 201.113 273.283 198.036C273.283 194.959 275.375 192.64 278.145 192.64C280.903 192.639 282.907 194.909 282.907 198.036V198.036ZM298.626 188.527C293.163 188.527 288.883 192.733 288.883 198.104C288.883 203.417 293.135 207.578 298.56 207.578C304.042 207.578 308.334 203.386 308.334 198.036C308.334 192.705 304.07 188.528 298.626 188.528V188.527V188.527ZM298.626 203.464C295.72 203.464 293.529 201.129 293.529 198.035C293.529 194.926 295.645 192.671 298.56 192.671C301.484 192.671 303.688 195.005 303.688 198.103C303.688 201.21 301.559 203.464 298.626 203.464V203.464ZM319.998 188.898H315.537V184.338C315.537 184.174 315.406 184.041 315.243 184.041H311.189C311.026 184.041 310.891 184.174 310.891 184.338V188.898H308.944C308.781 188.898 308.65 189.031 308.65 189.195V192.678C308.65 192.842 308.781 192.975 308.944 192.975H310.891V201.99C310.891 205.631 312.704 207.478 316.282 207.478C317.735 207.478 318.94 207.177 320.076 206.532C320.17 206.482 320.227 206.382 320.227 206.276V202.957C320.227 202.857 320.173 202.76 320.086 202.707C319.998 202.65 319.889 202.647 319.798 202.694C319.018 203.086 318.264 203.267 317.419 203.267C316.119 203.267 315.537 202.676 315.537 201.354V192.977H319.998C320.161 192.977 320.292 192.844 320.292 192.68V189.197C320.299 189.033 320.167 188.9 320.001 188.9L319.998 188.898V188.898ZM335.538 188.916V188.356C335.538 186.708 336.171 185.973 337.586 185.973C338.431 185.973 339.11 186.141 339.871 186.395C339.965 186.424 340.062 186.409 340.137 186.353C340.215 186.297 340.259 186.207 340.259 186.112V182.697C340.259 182.566 340.178 182.451 340.05 182.412C339.248 182.173 338.221 181.928 336.681 181.928C332.94 181.928 330.958 184.036 330.958 188.023V188.88H329.011C328.848 188.88 328.714 189.014 328.714 189.177V192.678C328.714 192.842 328.848 192.975 329.011 192.975H330.958V206.877C330.958 207.043 331.093 207.174 331.256 207.174H335.307C335.473 207.174 335.604 207.043 335.604 206.877V192.976H339.389L345.187 206.877C344.529 208.336 343.881 208.627 342.999 208.627C342.285 208.627 341.53 208.414 340.763 207.991C340.691 207.954 340.604 207.947 340.529 207.969C340.45 207.998 340.385 208.054 340.353 208.129L338.979 211.144C338.913 211.288 338.97 211.454 339.107 211.529C340.541 212.305 341.834 212.637 343.434 212.637C346.427 212.637 348.083 211.241 349.538 207.49L356.57 189.321C356.607 189.23 356.595 189.127 356.538 189.046C356.485 188.965 356.394 188.917 356.297 188.917H352.077C351.949 188.917 351.836 188.997 351.796 189.116L347.472 201.461L342.739 189.108C342.695 188.993 342.585 188.917 342.463 188.917H335.538V188.916V188.916ZM326.529 188.898H322.474C322.312 188.898 322.177 189.031 322.177 189.195V206.877C322.177 207.043 322.312 207.174 322.474 207.174H326.529C326.691 207.174 326.826 207.043 326.826 206.877V189.196C326.826 189.032 326.694 188.899 326.529 188.899V188.898ZM324.525 180.846C322.919 180.846 321.617 182.146 321.617 183.752C321.617 185.358 322.919 186.66 324.525 186.66C326.131 186.66 327.43 185.358 327.43 183.752C327.43 182.146 326.128 180.846 324.525 180.846ZM360.032 194.583C358.429 194.583 357.18 193.295 357.18 191.731C357.18 190.166 358.445 188.863 360.048 188.863C361.651 188.863 362.9 190.151 362.9 191.714C362.9 193.279 361.635 194.583 360.032 194.583ZM360.048 189.147C358.586 189.147 357.481 190.308 357.481 191.731C357.481 193.152 358.58 194.298 360.032 194.298C361.494 194.298 362.599 193.138 362.599 191.714C362.599 190.293 361.5 189.147 360.048 189.147V189.147ZM360.68 192.008L361.488 193.137H360.805L360.079 192.101H359.456V193.137H358.886V190.143H360.22C360.918 190.143 361.375 190.499 361.375 191.098C361.378 191.589 361.093 191.889 360.683 192.008H360.68ZM360.198 190.657H359.456V191.604H360.198C360.567 191.604 360.79 191.423 360.79 191.13C360.79 190.822 360.567 190.657 360.198 190.657V190.657Z" fill="#1ED760"/>
</g>
<line x1="403.5" y1="155.5" x2="403.5" y2="234.5" stroke="white" stroke-linecap="round" stroke-linejoin="round"/>
<g style="mix-blend-mode:difference">
<path fill-rule="evenodd" clip-rule="evenodd" d="M497.388 198.93C497.788 197.353 498 195.701 498 194C498 182.954 489.046 174 478 174C472.58 174 467.663 176.156 464.061 179.657C469.132 181.21 475.294 183.938 481.635 187.599C488.024 191.288 493.502 195.293 497.388 198.93ZM490.884 209.297C487.404 212.232 482.909 214 478 214C466.954 214 458 205.046 458 194C458 192.811 458.104 191.647 458.303 190.515C462.158 194.046 467.473 197.898 473.635 201.456C479.841 205.039 485.877 207.729 490.884 209.297Z" fill="white"/>
</g>
<g style="mix-blend-mode:difference" clip-path="url(#clip1_757_3331)">
<path d="M529.8 208.421C529.253 208.421 528.679 208.395 528.08 208.342C527.506 208.316 526.946 208.16 526.399 207.873C525.878 207.587 525.435 207.079 525.07 206.349C524.731 205.645 524.523 204.629 524.444 203.3C521.473 202.909 519.206 201.71 517.643 199.703C516.105 197.697 515.336 195.117 515.336 191.963C515.336 189.67 515.753 187.663 516.587 185.943C517.421 184.223 518.672 182.894 520.34 181.956C522.034 180.992 524.132 180.51 526.633 180.51C529.083 180.51 531.142 180.992 532.81 181.956C534.478 182.894 535.729 184.223 536.563 185.943C537.423 187.637 537.853 189.644 537.853 191.963C537.853 194.882 537.149 197.345 535.742 199.352C534.36 201.332 532.315 202.609 529.604 203.182C529.604 203.756 529.709 204.082 529.917 204.16C530.152 204.264 530.686 204.316 531.52 204.316C531.416 204.316 531.585 204.303 532.028 204.277C532.497 204.277 532.979 204.277 533.474 204.277L533.396 208.382C533.318 208.382 533.07 208.382 532.653 208.382C532.263 208.382 531.833 208.382 531.363 208.382C530.894 208.408 530.49 208.421 530.152 208.421C529.839 208.421 529.722 208.421 529.8 208.421ZM526.555 198.062C528.484 198.062 529.917 197.488 530.855 196.342C531.793 195.195 532.263 193.67 532.263 191.768C532.263 189.866 531.793 188.341 530.855 187.194C529.917 186.022 528.484 185.435 526.555 185.435C524.705 185.435 523.298 185.996 522.333 187.116C521.369 188.211 520.887 189.761 520.887 191.768C520.887 193.67 521.356 195.195 522.294 196.342C523.233 197.488 524.653 198.062 526.555 198.062ZM545.661 203.3C544.488 203.3 543.537 203.091 542.807 202.674C542.103 202.257 541.556 201.723 541.165 201.072C540.8 200.394 540.553 199.677 540.422 198.922C540.292 198.14 540.214 197.397 540.188 196.693C540.188 195.964 540.188 195.351 540.188 194.856V186.725H545.504V194.895C545.504 195.442 545.543 196.003 545.622 196.576C545.726 197.123 545.96 197.592 546.325 197.983C546.716 198.348 547.342 198.531 548.202 198.531C549.062 198.531 549.674 198.348 550.039 197.983C550.404 197.592 550.625 197.123 550.703 196.576C550.782 196.003 550.821 195.442 550.821 194.895V186.725H556.45V202.909H551.72L550.821 200.329H550.742C550.742 200.329 550.664 200.485 550.508 200.798C550.378 201.085 550.13 201.423 549.765 201.814C549.4 202.205 548.879 202.557 548.202 202.87C547.55 203.156 546.703 203.3 545.661 203.3ZM564.408 203.3C562.193 203.3 560.655 202.57 559.795 201.111C558.961 199.625 558.544 197.619 558.544 195.091C558.544 193.397 558.727 191.924 559.092 190.673C559.457 189.422 560.069 188.458 560.929 187.781C561.789 187.077 562.949 186.725 564.408 186.725C565.477 186.725 566.337 186.882 566.988 187.194C567.666 187.481 568.187 187.82 568.552 188.211C568.917 188.602 569.164 188.953 569.294 189.266C569.425 189.553 569.49 189.696 569.49 189.696H569.568V186.725H575.197V202.909H570.428L569.568 200.72H569.49C569.516 200.72 569.451 200.85 569.294 201.111C569.138 201.371 568.864 201.671 568.473 202.01C568.109 202.349 567.588 202.648 566.91 202.909C566.258 203.169 565.424 203.3 564.408 203.3ZM566.714 198.804C567.601 198.804 568.239 198.635 568.63 198.296C569.047 197.931 569.308 197.462 569.412 196.889C569.516 196.316 569.568 195.729 569.568 195.13C569.568 194.504 569.516 193.918 569.412 193.371C569.308 192.797 569.047 192.341 568.63 192.002C568.239 191.664 567.601 191.494 566.714 191.494C565.828 191.494 565.177 191.677 564.76 192.042C564.369 192.38 564.122 192.823 564.017 193.371C563.913 193.918 563.861 194.504 563.861 195.13C563.861 195.755 563.913 196.355 564.017 196.928C564.122 197.475 564.369 197.931 564.76 198.296C565.177 198.635 565.828 198.804 566.714 198.804Z" fill="white"/>
</g>
<defs>
<clipPath id="clip0_757_3331">
<rect width="175" height="52.5939" fill="white" transform="translate(188 168.703)"/>
</clipPath>
<clipPath id="clip1_757_3331">
<rect width="60" height="28.6364" fill="white" transform="translate(515.3 180.182)"/>
</clipPath>
</defs>
</svg>
