<svg width="80" height="80" viewBox="0 0 80 80" fill="none" xmlns="http://www.w3.org/2000/svg">
<path fill-rule="evenodd" clip-rule="evenodd" d="M64.2345 46.1636C64.7344 44.192 65 42.127 65 40C65 26.1929 53.8071 15 40 15C33.2243 15 27.0783 17.6955 22.5756 22.0727C28.9136 24.0137 36.6169 27.4241 44.5432 32.0004C52.5296 36.6113 59.3776 41.6179 64.2345 46.1636ZM56.1044 59.1227C51.7542 62.79 46.1352 65 40 65C26.1929 65 15 53.8071 15 40C15 38.5144 15.1296 37.0591 15.3781 35.6447C20.1977 40.0592 26.8411 44.874 34.5432 49.3209C42.3009 53.7998 49.8449 57.1618 56.1044 59.1227Z" fill="black"/>
</svg>
