<svg width="80" height="61" viewBox="0 0 80 61" fill="none" xmlns="http://www.w3.org/2000/svg">
<g clip-path="url(#clip0_757_3272)">
<path d="M27.0833 42.0325C26.6272 42.0325 26.1495 42.0108 25.65 41.9674C25.1722 41.9457 24.7053 41.8154 24.2492 41.5765C23.8149 41.3376 23.4457 40.9141 23.1416 40.306C22.8593 39.7196 22.6856 38.8727 22.6204 37.7651C20.1447 37.4393 18.2553 36.4404 16.9522 34.7681C15.6709 33.0959 15.0303 30.9459 15.0303 28.3181C15.0303 26.407 15.3777 24.7348 16.0727 23.3015C16.7676 21.8681 17.8101 20.7606 19.2 19.9787C20.6116 19.1752 22.3598 18.7734 24.4447 18.7734C26.4861 18.7734 28.2017 19.1752 29.5916 19.9787C30.9815 20.7606 32.0239 21.8681 32.7189 23.3015C33.4356 24.7131 33.7939 26.3853 33.7939 28.3181C33.7939 30.7504 33.2075 32.8027 32.0348 34.475C30.8838 36.1254 29.179 37.1896 26.9204 37.6674C26.9204 38.1451 27.0073 38.4166 27.181 38.4818C27.3765 38.5686 27.8217 38.6121 28.5166 38.6121C28.4298 38.6121 28.5709 38.6012 28.9401 38.5795C29.331 38.5795 29.7328 38.5795 30.1454 38.5795L30.0803 42C30.0151 42 29.8088 42 29.4613 42C29.1356 42 28.7772 42 28.3863 42C27.9954 42.0217 27.6588 42.0325 27.3765 42.0325C27.1159 42.0325 27.0182 42.0325 27.0833 42.0325ZM24.3795 33.4C25.9866 33.4 27.181 32.9222 27.9628 31.9666C28.7447 31.011 29.1356 29.7406 29.1356 28.1553C29.1356 26.5699 28.7447 25.2995 27.9628 24.3439C27.181 23.3666 25.9866 22.878 24.3795 22.878C22.8376 22.878 21.6649 23.3449 20.8613 24.2787C20.0578 25.1909 19.656 26.483 19.656 28.1553C19.656 29.7406 20.0469 31.011 20.8288 31.9666C21.6106 32.9222 22.7942 33.4 24.3795 33.4ZM40.3007 37.7651C39.3234 37.7651 38.5307 37.5914 37.9226 37.2439C37.3363 36.8964 36.8802 36.4512 36.5544 35.9083C36.2504 35.3436 36.0441 34.7464 35.9355 34.1166C35.8269 33.4651 35.7618 32.8462 35.74 32.2598C35.74 31.6517 35.74 31.1414 35.74 30.7287V23.953H40.1703V30.7613C40.1703 31.2174 40.2029 31.6843 40.2681 32.1621C40.355 32.6181 40.5504 33.009 40.8544 33.3348C41.1802 33.6389 41.7014 33.7909 42.4181 33.7909C43.1347 33.7909 43.6451 33.6389 43.9491 33.3348C44.2532 33.009 44.4378 32.6181 44.5029 32.1621C44.5681 31.6843 44.6007 31.2174 44.6007 30.7613V23.953H49.2916V37.4393H45.3499L44.6007 35.2893H44.5355C44.5355 35.2893 44.4703 35.4196 44.34 35.6803C44.2315 35.9192 44.0252 36.2015 43.7211 36.5272C43.4171 36.853 42.9827 37.1462 42.4181 37.4068C41.8752 37.6457 41.1694 37.7651 40.3007 37.7651ZM55.9235 37.7651C54.0776 37.7651 52.7963 37.157 52.0796 35.9409C51.3847 34.703 51.0372 33.0307 51.0372 30.9242C51.0372 29.5126 51.1892 28.2856 51.4932 27.2431C51.7973 26.2007 52.3076 25.3972 53.0242 24.8325C53.7409 24.2462 54.7075 23.953 55.9235 23.953C56.814 23.953 57.5306 24.0833 58.0735 24.3439C58.6382 24.5828 59.0727 24.8651 59.3765 25.1909C59.6807 25.5166 59.8871 25.8098 59.9954 26.0704C60.1041 26.3093 60.1583 26.4287 60.1583 26.4287H60.2235V23.953H64.9144V37.4393H60.9401L60.2235 35.6151H60.1583C60.1803 35.6151 60.1257 35.7237 59.9954 35.9409C59.8651 36.158 59.6371 36.4078 59.3113 36.6901C59.0075 36.9724 58.5731 37.2222 58.0083 37.4393C57.4655 37.6565 56.7704 37.7651 55.9235 37.7651ZM57.8454 34.0189C58.5841 34.0189 59.1159 33.8777 59.4416 33.5954C59.7894 33.2914 60.0064 32.9004 60.0932 32.4227C60.1803 31.9449 60.2235 31.4563 60.2235 30.9568C60.2235 30.4356 60.1803 29.9469 60.0932 29.4909C60.0064 29.0131 59.7894 28.633 59.4416 28.3507C59.1159 28.0684 58.5841 27.9272 57.8454 27.9272C57.1072 27.9272 56.5644 28.0792 56.2166 28.3833C55.8909 28.6656 55.6848 29.0348 55.5977 29.4909C55.511 29.9469 55.4674 30.4356 55.4674 30.9568C55.4674 31.478 55.511 31.9775 55.5977 32.4553C55.6848 32.9113 55.8909 33.2914 56.2166 33.5954C56.5644 33.8777 57.1072 34.0189 57.8454 34.0189Z" fill="black"/>
</g>
<defs>
<clipPath id="clip0_757_3272">
<rect width="50" height="23.8636" fill="white" transform="translate(15 18.5)"/>
</clipPath>
</defs>
</svg>
